<svg width="36" height="36" viewBox="0 0 36 36" fill="none" xmlns="http://www.w3.org/2000/svg">
<path d="M0.5 12.3871C0.5 10.2109 0.500389 8.60883 0.603817 7.34293C0.706768 6.08286 0.909314 5.19998 1.28932 4.45416C1.98363 3.09151 3.09151 1.98363 4.45417 1.28932C5.19998 0.909314 6.08286 0.706768 7.34292 0.603817C8.60882 0.500389 10.2109 0.5 12.3871 0.5H23.6129C25.7891 0.5 27.3912 0.500389 28.6571 0.603817C29.9171 0.706768 30.8 0.909314 31.5458 1.28932C32.9085 1.98363 34.0164 3.09151 34.7107 4.45416C35.0907 5.19998 35.2932 6.08286 35.3962 7.34292C35.4996 8.60883 35.5 10.2109 35.5 12.3871V23.6129C35.5 25.7891 35.4996 27.3912 35.3962 28.6571C35.2932 29.9171 35.0907 30.8 34.7107 31.5458C34.0164 32.9085 32.9085 34.0164 31.5458 34.7107C30.8 35.0907 29.9171 35.2932 28.6571 35.3962C27.3912 35.4996 25.7891 35.5 23.6129 35.5H12.3871C10.2109 35.5 8.60883 35.4996 7.34293 35.3962C6.08286 35.2932 5.19998 35.0907 4.45417 34.7107C3.09151 34.0164 1.98363 32.9085 1.28932 31.5458C0.909314 30.8 0.706768 29.9171 0.603817 28.6571C0.500389 27.3912 0.5 25.7891 0.5 23.6129V12.3871Z" fill="white" stroke="#E0E0E0"/>
<path fill-rule="evenodd" clip-rule="evenodd" d="M22.4992 21C22.0696 21 19.5603 19.6282 17.2117 17.3818C15.3483 15.5993 14 12.9786 14 10.6189C14 8.48269 15.7716 6 18.6322 6C21.4198 6 22.0328 7.51768 22.5 7.51768C22.8731 7.51768 23.6139 6 26.3678 6C29.3906 6 31 8.72929 31 10.6189C31 12.9779 29.7528 15.5026 27.7883 17.3818C25.4993 19.5703 22.9288 21 22.4992 21Z" fill="url(#paint0_linear)"/>
<defs>
<linearGradient id="paint0_linear" x1="22.4992" y1="6.00008" x2="22.4992" y2="21.0002" gradientUnits="userSpaceOnUse">
<stop stop-color="#FF61AD"/>
<stop offset="1" stop-color="#FF2616"/>
</linearGradient>
</defs>
</svg>
