<svg width="264" height="64" viewBox="0 0 264 64" fill="none" xmlns="http://www.w3.org/2000/svg">
<path d="M0.5 22.0215C0.5 18.1591 0.500389 15.2924 0.685855 13.0224C0.870844 10.7583 1.23747 9.13181 1.94563 7.74196C3.21724 5.24629 5.24629 3.21724 7.74196 1.94563C9.13181 1.23747 10.7583 0.870844 13.0224 0.685855C15.2924 0.500389 18.1591 0.5 22.0215 0.5H41.9785C45.8409 0.5 48.7076 0.500389 50.9776 0.685855C53.2417 0.870844 54.8682 1.23747 56.258 1.94563C58.7537 3.21724 60.7828 5.24629 62.0544 7.74196C62.7625 9.13181 63.1292 10.7583 63.3141 13.0224C63.4996 15.2924 63.5 18.1591 63.5 22.0215V41.9785C63.5 45.8409 63.4996 48.7076 63.3141 50.9776C63.1292 53.2417 62.7625 54.8682 62.0544 56.258C60.7828 58.7537 58.7537 60.7828 56.258 62.0544C54.8682 62.7625 53.2417 63.1292 50.9776 63.3141C48.7076 63.4996 45.8409 63.5 41.9785 63.5H22.0215C18.1591 63.5 15.2924 63.4996 13.0224 63.3141C10.7583 63.1292 9.13181 62.7625 7.74196 62.0544C5.24629 60.7828 3.21724 58.7537 1.94563 56.258C1.23747 54.8682 0.870844 53.2417 0.685855 50.9776C0.500389 48.7076 0.5 45.8409 0.5 41.9785V22.0215Z" fill="white" stroke="#E0E0E0"/>
<path d="M40.3469 44.999C40.0223 49.2832 36.3564 52.6607 31.8818 52.6607V55.6181C37.1109 55.6181 41.5262 52.2194 42.9332 47.5629L40.3469 44.999Z" fill="url(#paint0_linear)"/>
<path d="M43.4018 36.145V36.0981H43.3547L43.4018 36.145Z" fill="url(#paint1_linear)"/>
<path d="M23.4168 18.8772C23.7414 14.593 27.4073 11.2155 31.8818 11.2155V8.25808C26.6528 8.25808 22.2375 11.6568 20.8304 16.3133L23.4168 18.8772Z" fill="url(#paint2_linear)"/>
<path d="M20.3618 27.7313V27.7781H20.409L20.3618 27.7313Z" fill="url(#paint3_linear)"/>
<path d="M27.2784 27.0413C27.8751 26.4494 27.8751 25.4846 27.2784 24.8927L22.1215 19.7781L16.9647 24.8927C16.3679 25.4846 16.3679 26.4494 16.9647 27.0413C17.5545 27.6263 18.5058 27.6263 19.0956 27.0413L20.6816 25.4683V44.3069C20.6816 50.5539 25.696 55.6181 31.8816 55.6181V52.6415C27.3238 52.6415 23.629 48.9099 23.629 44.3069V25.5353L25.1474 27.0413C25.7372 27.6263 26.6885 27.6263 27.2784 27.0413Z" fill="url(#paint4_linear)"/>
<path d="M40.3703 19.5693C40.3703 14.9662 36.5699 11.2347 31.8818 11.2347V8.25806C38.2442 8.25806 43.4018 13.3223 43.4018 19.5693V38.4339L44.7641 37.1006C45.3333 36.5434 46.2434 36.5434 46.8127 37.1006C47.3995 37.6749 47.3995 38.6193 46.8127 39.1936L41.8019 44.098L36.7912 39.1936C36.2044 38.6193 36.2044 37.6749 36.7912 37.1006C37.3604 36.5434 38.2705 36.5434 38.8398 37.1006L40.3703 38.5986V19.5693Z" fill="url(#paint5_linear)"/>
<path d="M237.514 52C237.354 52 237.218 51.944 237.106 51.832C236.994 51.72 236.938 51.584 236.938 51.424V48.352H229.33C229.17 48.352 229.034 48.296 228.922 48.184C228.81 48.072 228.754 47.936 228.754 47.776V46.144C228.754 45.888 228.842 45.648 229.018 45.424L236.098 35.608C236.178 35.48 236.298 35.384 236.458 35.32C236.618 35.24 236.794 35.2 236.986 35.2H239.602C239.778 35.2 239.914 35.256 240.01 35.368C240.122 35.464 240.178 35.6 240.178 35.776V45.52H242.314C242.49 45.52 242.634 45.576 242.746 45.688C242.858 45.784 242.914 45.92 242.914 46.096V47.776C242.914 47.936 242.858 48.072 242.746 48.184C242.634 48.296 242.498 48.352 242.338 48.352H240.178V51.424C240.178 51.584 240.122 51.72 240.01 51.832C239.914 51.944 239.778 52 239.602 52H237.514ZM237.01 45.616V38.68L232.09 45.616H237.01ZM244.728 52C244.568 52 244.432 51.944 244.32 51.832C244.208 51.72 244.152 51.584 244.152 51.424V49.048C244.152 48.888 244.208 48.752 244.32 48.64C244.432 48.512 244.568 48.448 244.728 48.448H247.128C247.288 48.448 247.424 48.512 247.536 48.64C247.648 48.752 247.704 48.888 247.704 49.048V51.424C247.704 51.584 247.648 51.72 247.536 51.832C247.424 51.944 247.288 52 247.128 52H244.728ZM256.122 52.24C254.73 52.24 253.53 52.024 252.522 51.592C251.53 51.144 250.77 50.528 250.242 49.744C249.714 48.96 249.45 48.064 249.45 47.056C249.45 46.16 249.674 45.368 250.122 44.68C250.57 43.976 251.17 43.44 251.922 43.072C251.33 42.704 250.866 42.232 250.53 41.656C250.21 41.064 250.05 40.392 250.05 39.64C250.05 38.232 250.578 37.104 251.634 36.256C252.706 35.392 254.202 34.96 256.122 34.96C258.026 34.96 259.506 35.384 260.562 36.232C261.618 37.08 262.146 38.208 262.146 39.616C262.146 40.368 261.986 41.04 261.666 41.632C261.362 42.208 260.914 42.688 260.322 43.072C261.09 43.44 261.69 43.976 262.122 44.68C262.57 45.368 262.794 46.168 262.794 47.08C262.794 48.088 262.53 48.984 262.002 49.768C261.474 50.552 260.706 51.16 259.698 51.592C258.69 52.024 257.498 52.24 256.122 52.24ZM256.122 42.04C256.954 42.024 257.642 41.808 258.186 41.392C258.746 40.976 259.026 40.432 259.026 39.76C259.026 39.056 258.754 38.496 258.21 38.08C257.666 37.664 256.97 37.456 256.122 37.456C255.274 37.456 254.578 37.664 254.034 38.08C253.49 38.496 253.218 39.056 253.218 39.76C253.218 40.448 253.49 41 254.034 41.416C254.578 41.832 255.274 42.04 256.122 42.04ZM256.122 49.744C257.066 49.744 257.858 49.504 258.498 49.024C259.138 48.528 259.458 47.88 259.458 47.08C259.458 46.28 259.138 45.64 258.498 45.16C257.858 44.664 257.066 44.416 256.122 44.416C255.162 44.416 254.362 44.656 253.722 45.136C253.098 45.616 252.786 46.264 252.786 47.08C252.786 47.896 253.098 48.544 253.722 49.024C254.362 49.504 255.162 49.744 256.122 49.744Z" fill="black"/>
<path d="M81.76 20C81.6533 20 81.5627 19.968 81.488 19.904C81.424 19.8293 81.392 19.7387 81.392 19.632V9.184C81.392 9.06667 81.424 8.976 81.488 8.912C81.5627 8.83733 81.6533 8.8 81.76 8.8H85.824C87.0293 8.8 87.9787 9.09333 88.672 9.68C89.3653 10.2667 89.712 11.1147 89.712 12.224C89.712 13.3333 89.3653 14.1813 88.672 14.768C87.9893 15.344 87.04 15.632 85.824 15.632H82.992V19.632C82.992 19.7387 82.9547 19.8293 82.88 19.904C82.8053 19.968 82.7147 20 82.608 20H81.76ZM85.744 14.288C86.5227 14.288 87.1093 14.112 87.504 13.76C87.9093 13.408 88.112 12.896 88.112 12.224C88.112 11.552 87.9147 11.04 87.52 10.688C87.1253 10.3253 86.5333 10.144 85.744 10.144H82.976V14.288H85.744ZM94.7776 20.16C93.679 20.16 92.799 19.824 92.1376 19.152C91.487 18.4693 91.1296 17.5413 91.0656 16.368L91.0496 15.824L91.0656 15.296C91.1403 14.144 91.503 13.2267 92.1536 12.544C92.815 11.8613 93.6843 11.52 94.7616 11.52C95.9456 11.52 96.863 11.8987 97.5136 12.656C98.1643 13.4027 98.4896 14.416 98.4896 15.696V15.968C98.4896 16.0747 98.4523 16.1653 98.3776 16.24C98.3136 16.304 98.2283 16.336 98.1216 16.336H92.5856V16.48C92.6176 17.1733 92.8256 17.7653 93.2096 18.256C93.6043 18.736 94.1216 18.976 94.7616 18.976C95.2523 18.976 95.6523 18.88 95.9616 18.688C96.2816 18.4853 96.5163 18.2773 96.6656 18.064C96.7616 17.936 96.831 17.8613 96.8736 17.84C96.927 17.808 97.0176 17.792 97.1456 17.792H97.9296C98.0256 17.792 98.1056 17.8187 98.1696 17.872C98.2336 17.9253 98.2656 18 98.2656 18.096C98.2656 18.3307 98.1163 18.6133 97.8176 18.944C97.5296 19.2747 97.119 19.5627 96.5856 19.808C96.063 20.0427 95.4603 20.16 94.7776 20.16ZM96.9696 15.232V15.184C96.9696 14.448 96.767 13.8507 96.3616 13.392C95.967 12.9227 95.4336 12.688 94.7616 12.688C94.0896 12.688 93.5563 12.9227 93.1616 13.392C92.7776 13.8507 92.5856 14.448 92.5856 15.184V15.232H96.9696ZM107.475 11.68C107.56 11.68 107.635 11.712 107.699 11.776C107.773 11.84 107.811 11.9147 107.811 12V19.632C107.811 19.7387 107.773 19.8293 107.699 19.904C107.635 19.968 107.549 20 107.443 20H106.691C106.584 20 106.493 19.968 106.419 19.904C106.355 19.8293 106.323 19.7387 106.323 19.632V13.824L101.891 19.76C101.773 19.92 101.635 20 101.475 20H100.755C100.659 20 100.573 19.968 100.499 19.904C100.435 19.8293 100.403 19.7493 100.403 19.664V12.048C100.403 11.9413 100.435 11.856 100.499 11.792C100.573 11.7173 100.664 11.68 100.771 11.68H101.539C101.645 11.68 101.731 11.7173 101.795 11.792C101.869 11.856 101.907 11.9413 101.907 12.048V17.824L106.323 11.92C106.44 11.76 106.579 11.68 106.739 11.68H107.475ZM104.147 10.576C103.293 10.576 102.68 10.3893 102.307 10.016C101.933 9.64267 101.747 9.16267 101.747 8.576C101.747 8.49067 101.773 8.42133 101.827 8.368C101.88 8.304 101.955 8.272 102.051 8.272H102.595C102.691 8.272 102.765 8.304 102.819 8.368C102.872 8.42133 102.899 8.49067 102.899 8.576C102.899 9.248 103.315 9.584 104.147 9.584C104.979 9.584 105.395 9.248 105.395 8.576C105.395 8.49067 105.421 8.42133 105.475 8.368C105.528 8.304 105.603 8.272 105.699 8.272H106.259C106.355 8.272 106.429 8.304 106.483 8.368C106.536 8.42133 106.563 8.49067 106.563 8.576C106.563 9.152 106.371 9.632 105.987 10.016C105.613 10.3893 105 10.576 104.147 10.576ZM112.697 20C112.59 20 112.499 19.968 112.425 19.904C112.361 19.8293 112.329 19.7387 112.329 19.632V12.96H109.545C109.438 12.96 109.347 12.928 109.273 12.864C109.209 12.7893 109.177 12.6987 109.177 12.592V12.048C109.177 11.9413 109.209 11.856 109.273 11.792C109.347 11.7173 109.438 11.68 109.545 11.68H116.585C116.691 11.68 116.777 11.7173 116.841 11.792C116.915 11.856 116.953 11.9413 116.953 12.048V12.592C116.953 12.6987 116.915 12.7893 116.841 12.864C116.777 12.928 116.691 12.96 116.585 12.96H113.801V19.632C113.801 19.7387 113.769 19.8293 113.705 19.904C113.641 19.968 113.555 20 113.449 20H112.697ZM125.412 11.68C125.498 11.68 125.572 11.712 125.636 11.776C125.711 11.84 125.748 11.9147 125.748 12V19.632C125.748 19.7387 125.711 19.8293 125.636 19.904C125.572 19.968 125.487 20 125.38 20H124.628C124.522 20 124.431 19.968 124.356 19.904C124.292 19.8293 124.26 19.7387 124.26 19.632V13.824L119.828 19.76C119.711 19.92 119.572 20 119.412 20H118.692C118.596 20 118.511 19.968 118.436 19.904C118.372 19.8293 118.34 19.7493 118.34 19.664V12.048C118.34 11.9413 118.372 11.856 118.436 11.792C118.511 11.7173 118.602 11.68 118.708 11.68H119.476C119.583 11.68 119.668 11.7173 119.732 11.792C119.807 11.856 119.844 11.9413 119.844 12.048V17.824L124.26 11.92C124.378 11.76 124.516 11.68 124.676 11.68H125.412ZM128.458 20C128.352 20 128.261 19.968 128.186 19.904C128.122 19.8293 128.09 19.7387 128.09 19.632V12.048C128.09 11.9413 128.122 11.856 128.186 11.792C128.261 11.7173 128.352 11.68 128.458 11.68H129.226C129.333 11.68 129.418 11.7173 129.482 11.792C129.557 11.856 129.594 11.9413 129.594 12.048V15.12H133.946V12.048C133.946 11.9413 133.978 11.856 134.042 11.792C134.117 11.7173 134.208 11.68 134.314 11.68H135.066C135.173 11.68 135.258 11.7173 135.322 11.792C135.397 11.856 135.434 11.9413 135.434 12.048V19.632C135.434 19.7387 135.397 19.8293 135.322 19.904C135.258 19.968 135.173 20 135.066 20H134.314C134.208 20 134.117 19.968 134.042 19.904C133.978 19.8293 133.946 19.7387 133.946 19.632V16.4H129.594V19.632C129.594 19.7387 129.557 19.8293 129.482 19.904C129.418 19.968 129.333 20 129.226 20H128.458ZM138.208 20C138.102 20 138.011 19.968 137.936 19.904C137.872 19.8293 137.84 19.7387 137.84 19.632V12.048C137.84 11.9413 137.872 11.856 137.936 11.792C138.011 11.7173 138.102 11.68 138.208 11.68H142.992C143.099 11.68 143.184 11.7173 143.248 11.792C143.323 11.856 143.36 11.9413 143.36 12.048V12.592C143.36 12.6987 143.323 12.7893 143.248 12.864C143.184 12.928 143.099 12.96 142.992 12.96H139.344V19.632C139.344 19.7387 139.307 19.8293 139.232 19.904C139.168 19.968 139.083 20 138.976 20H138.208ZM149.005 20C148.898 20 148.808 19.968 148.733 19.904C148.669 19.8293 148.637 19.7387 148.637 19.632V12.048C148.637 11.9413 148.669 11.856 148.733 11.792C148.808 11.7173 148.898 11.68 149.005 11.68H152.333C153.314 11.68 154.061 11.8827 154.573 12.288C155.096 12.6827 155.357 13.2267 155.357 13.92C155.357 14.3787 155.272 14.736 155.101 14.992C154.93 15.2373 154.669 15.4507 154.317 15.632C154.701 15.792 155 16.0587 155.213 16.432C155.437 16.8053 155.549 17.2053 155.549 17.632C155.549 18.4 155.277 18.9867 154.733 19.392C154.2 19.7973 153.442 20 152.461 20H149.005ZM152.237 15.216C152.76 15.216 153.17 15.104 153.469 14.88C153.768 14.656 153.917 14.3413 153.917 13.936C153.917 13.5413 153.773 13.264 153.485 13.104C153.197 12.9333 152.781 12.848 152.237 12.848H150.109V15.216H152.237ZM152.333 18.832C152.866 18.832 153.282 18.7307 153.581 18.528C153.89 18.3253 154.045 18.0267 154.045 17.632C154.045 17.2053 153.906 16.896 153.629 16.704C153.352 16.5013 152.92 16.4 152.333 16.4H150.109V18.832H152.333ZM160.562 20C160.477 20 160.402 19.968 160.338 19.904C160.274 19.84 160.242 19.7653 160.242 19.68C160.242 19.5947 160.247 19.536 160.258 19.504L164.226 9.152C164.311 8.91733 164.482 8.8 164.738 8.8H165.826C166.082 8.8 166.253 8.91733 166.338 9.152L170.29 19.504L170.322 19.68C170.322 19.7653 170.29 19.84 170.226 19.904C170.162 19.968 170.087 20 170.002 20H169.186C169.069 20 168.978 19.9733 168.914 19.92C168.85 19.856 168.807 19.792 168.786 19.728L167.906 17.456H162.658L161.778 19.728C161.757 19.792 161.709 19.856 161.634 19.92C161.57 19.9733 161.485 20 161.378 20H160.562ZM167.442 16.08L165.282 10.4L163.122 16.08H167.442ZM172.209 23.04C172.102 23.04 172.011 23.0027 171.937 22.928C171.873 22.864 171.841 22.7787 171.841 22.672V12.048C171.841 11.9413 171.873 11.856 171.937 11.792C172.011 11.7173 172.102 11.68 172.209 11.68H172.945C173.051 11.68 173.137 11.7173 173.201 11.792C173.275 11.856 173.313 11.9413 173.313 12.048V12.752C173.91 11.9307 174.785 11.52 175.937 11.52C177.057 11.52 177.894 11.872 178.449 12.576C179.014 13.28 179.318 14.1867 179.361 15.296C179.371 15.4133 179.377 15.5947 179.377 15.84C179.377 16.0853 179.371 16.2667 179.361 16.384C179.318 17.4827 179.014 18.3893 178.449 19.104C177.883 19.808 177.046 20.16 175.937 20.16C174.827 20.16 173.963 19.76 173.345 18.96V22.672C173.345 22.7787 173.313 22.864 173.249 22.928C173.185 23.0027 173.099 23.04 172.993 23.04H172.209ZM175.601 18.864C176.358 18.864 176.907 18.6293 177.249 18.16C177.601 17.6907 177.793 17.072 177.825 16.304C177.835 16.1973 177.841 16.0427 177.841 15.84C177.841 13.824 177.094 12.816 175.601 12.816C174.865 12.816 174.31 13.0613 173.937 13.552C173.574 14.032 173.377 14.608 173.345 15.28L173.329 15.888L173.345 16.512C173.366 17.1413 173.569 17.6907 173.953 18.16C174.337 18.6293 174.886 18.864 175.601 18.864ZM181.74 23.04C181.633 23.04 181.543 23.0027 181.468 22.928C181.404 22.864 181.372 22.7787 181.372 22.672V12.048C181.372 11.9413 181.404 11.856 181.468 11.792C181.543 11.7173 181.633 11.68 181.74 11.68H182.476C182.583 11.68 182.668 11.7173 182.732 11.792C182.807 11.856 182.844 11.9413 182.844 12.048V12.752C183.441 11.9307 184.316 11.52 185.468 11.52C186.588 11.52 187.425 11.872 187.98 12.576C188.545 13.28 188.849 14.1867 188.892 15.296C188.903 15.4133 188.908 15.5947 188.908 15.84C188.908 16.0853 188.903 16.2667 188.892 16.384C188.849 17.4827 188.545 18.3893 187.98 19.104C187.415 19.808 186.577 20.16 185.468 20.16C184.359 20.16 183.495 19.76 182.876 18.96V22.672C182.876 22.7787 182.844 22.864 182.78 22.928C182.716 23.0027 182.631 23.04 182.524 23.04H181.74ZM185.132 18.864C185.889 18.864 186.439 18.6293 186.78 18.16C187.132 17.6907 187.324 17.072 187.356 16.304C187.367 16.1973 187.372 16.0427 187.372 15.84C187.372 13.824 186.625 12.816 185.132 12.816C184.396 12.816 183.841 13.0613 183.468 13.552C183.105 14.032 182.908 14.608 182.876 15.28L182.86 15.888L182.876 16.512C182.897 17.1413 183.1 17.6907 183.484 18.16C183.868 18.6293 184.417 18.864 185.132 18.864ZM198.617 20.16C197.732 20.16 196.964 20.0213 196.313 19.744C195.673 19.4667 195.182 19.104 194.841 18.656C194.5 18.1973 194.318 17.7067 194.297 17.184C194.297 17.0987 194.329 17.024 194.393 16.96C194.468 16.8853 194.553 16.848 194.649 16.848H195.465C195.668 16.848 195.806 16.9547 195.881 17.168C195.977 17.616 196.249 18 196.697 18.32C197.156 18.64 197.796 18.8 198.617 18.8C199.502 18.8 200.169 18.6453 200.617 18.336C201.065 18.016 201.289 17.5733 201.289 17.008C201.289 16.6453 201.177 16.352 200.953 16.128C200.74 15.904 200.42 15.7067 199.993 15.536C199.566 15.3653 198.926 15.152 198.073 14.896C197.241 14.6613 196.58 14.4107 196.089 14.144C195.598 13.8773 195.23 13.5467 194.985 13.152C194.74 12.7573 194.617 12.2613 194.617 11.664C194.617 11.088 194.772 10.5707 195.081 10.112C195.401 9.65333 195.854 9.296 196.441 9.04C197.028 8.77333 197.726 8.64 198.537 8.64C199.369 8.64 200.084 8.78933 200.681 9.088C201.278 9.376 201.732 9.744 202.041 10.192C202.35 10.64 202.516 11.088 202.537 11.536C202.537 11.6213 202.505 11.696 202.441 11.76C202.388 11.824 202.308 11.856 202.201 11.856H201.353C201.129 11.856 200.99 11.7547 200.937 11.552C200.873 11.104 200.622 10.736 200.185 10.448C199.748 10.1493 199.198 10 198.537 10C197.812 10 197.241 10.1387 196.825 10.416C196.409 10.6933 196.201 11.104 196.201 11.648C196.201 12.0107 196.297 12.3093 196.489 12.544C196.692 12.7787 196.996 12.9867 197.401 13.168C197.806 13.3387 198.398 13.536 199.177 13.76C200.084 14.0053 200.798 14.2613 201.321 14.528C201.844 14.784 202.233 15.1093 202.489 15.504C202.745 15.888 202.873 16.3787 202.873 16.976C202.873 17.968 202.489 18.7467 201.721 19.312C200.953 19.8773 199.918 20.16 198.617 20.16ZM208.01 20C206.325 20 205.482 19.0613 205.482 17.184V12.96H204.234C204.127 12.96 204.037 12.928 203.962 12.864C203.898 12.7893 203.866 12.6987 203.866 12.592V12.048C203.866 11.9413 203.898 11.856 203.962 11.792C204.037 11.7173 204.127 11.68 204.234 11.68H205.482V9.008C205.482 8.90133 205.514 8.816 205.578 8.752C205.653 8.67733 205.743 8.64 205.85 8.64H206.602C206.709 8.64 206.794 8.67733 206.858 8.752C206.933 8.816 206.97 8.90133 206.97 9.008V11.68H208.954C209.061 11.68 209.146 11.7173 209.21 11.792C209.285 11.856 209.322 11.9413 209.322 12.048V12.592C209.322 12.6987 209.285 12.7893 209.21 12.864C209.146 12.928 209.061 12.96 208.954 12.96H206.97V17.072C206.97 17.6053 207.061 18.0107 207.242 18.288C207.423 18.5547 207.722 18.688 208.138 18.688H209.114C209.221 18.688 209.306 18.7253 209.37 18.8C209.445 18.864 209.482 18.9493 209.482 19.056V19.632C209.482 19.7387 209.445 19.8293 209.37 19.904C209.306 19.968 209.221 20 209.114 20H208.01ZM214.42 20.16C213.247 20.16 212.335 19.8293 211.684 19.168C211.044 18.5067 210.703 17.6267 210.66 16.528L210.644 15.84L210.66 15.152C210.703 14.064 211.049 13.1893 211.7 12.528C212.351 11.856 213.257 11.52 214.42 11.52C215.583 11.52 216.489 11.856 217.14 12.528C217.791 13.1893 218.137 14.064 218.18 15.152C218.191 15.2693 218.196 15.4987 218.196 15.84C218.196 16.1813 218.191 16.4107 218.18 16.528C218.137 17.6267 217.791 18.5067 217.14 19.168C216.5 19.8293 215.593 20.16 214.42 20.16ZM214.42 18.928C215.092 18.928 215.62 18.7147 216.004 18.288C216.399 17.8613 216.612 17.248 216.644 16.448C216.655 16.3413 216.66 16.1387 216.66 15.84C216.66 15.5413 216.655 15.3387 216.644 15.232C216.612 14.432 216.399 13.8187 216.004 13.392C215.62 12.9653 215.092 12.752 214.42 12.752C213.748 12.752 213.215 12.9653 212.82 13.392C212.425 13.8187 212.217 14.432 212.196 15.232L212.18 15.84L212.196 16.448C212.217 17.248 212.425 17.8613 212.82 18.288C213.215 18.7147 213.748 18.928 214.42 18.928ZM220.568 20C220.461 20 220.37 19.968 220.296 19.904C220.232 19.8293 220.2 19.7387 220.2 19.632V12.064C220.2 11.9573 220.232 11.8667 220.296 11.792C220.37 11.7173 220.461 11.68 220.568 11.68H221.304C221.41 11.68 221.501 11.7173 221.576 11.792C221.65 11.8667 221.688 11.9573 221.688 12.064V12.768C222.125 12.0427 222.872 11.68 223.928 11.68H224.552C224.658 11.68 224.744 11.7173 224.808 11.792C224.882 11.856 224.92 11.9413 224.92 12.048V12.704C224.92 12.8107 224.882 12.896 224.808 12.96C224.744 13.024 224.658 13.056 224.552 13.056H223.592C223.016 13.056 222.562 13.2267 222.232 13.568C221.901 13.8987 221.736 14.352 221.736 14.928V19.632C221.736 19.7387 221.698 19.8293 221.624 19.904C221.549 19.968 221.458 20 221.352 20H220.568ZM229.45 20.16C228.351 20.16 227.471 19.824 226.81 19.152C226.159 18.4693 225.802 17.5413 225.738 16.368L225.722 15.824L225.738 15.296C225.812 14.144 226.175 13.2267 226.826 12.544C227.487 11.8613 228.356 11.52 229.434 11.52C230.618 11.52 231.535 11.8987 232.186 12.656C232.836 13.4027 233.161 14.416 233.161 15.696V15.968C233.161 16.0747 233.124 16.1653 233.05 16.24C232.986 16.304 232.9 16.336 232.794 16.336H227.258V16.48C227.29 17.1733 227.498 17.7653 227.882 18.256C228.276 18.736 228.794 18.976 229.434 18.976C229.924 18.976 230.324 18.88 230.634 18.688C230.954 18.4853 231.188 18.2773 231.338 18.064C231.434 17.936 231.503 17.8613 231.546 17.84C231.599 17.808 231.69 17.792 231.818 17.792H232.602C232.698 17.792 232.778 17.8187 232.842 17.872C232.906 17.9253 232.938 18 232.938 18.096C232.938 18.3307 232.788 18.6133 232.49 18.944C232.202 19.2747 231.791 19.5627 231.258 19.808C230.735 20.0427 230.132 20.16 229.45 20.16ZM231.642 15.232V15.184C231.642 14.448 231.439 13.8507 231.034 13.392C230.639 12.9227 230.106 12.688 229.434 12.688C228.762 12.688 228.228 12.9227 227.834 13.392C227.45 13.8507 227.258 14.448 227.258 15.184V15.232H231.642Z" fill="black"/>
<path d="M90.5767 32.2199C90.9183 31.3986 92.0817 31.3986 92.4233 32.2199L94.8362 38.0213C94.9802 38.3675 95.3058 38.6041 95.6796 38.634L101.943 39.1361C102.829 39.2072 103.189 40.3137 102.513 40.8924L97.7415 44.9799C97.4568 45.2239 97.3324 45.6066 97.4194 45.9714L98.8772 52.0831C99.0836 52.9483 98.1424 53.6321 97.3833 53.1685L92.0213 49.8934C91.7012 49.6979 91.2988 49.6979 90.9787 49.8934L85.6167 53.1685C84.8576 53.6321 83.9164 52.9483 84.1228 52.0831L85.5806 45.9714C85.6676 45.6066 85.5432 45.2239 85.2585 44.9799L80.4867 40.8924C79.8112 40.3137 80.1707 39.2072 81.0573 39.1361L87.3204 38.634C87.6942 38.6041 88.0198 38.3675 88.1638 38.0213L90.5767 32.2199Z" fill="#EE8834"/>
<path d="M117.577 32.2199C117.918 31.3986 119.082 31.3986 119.423 32.2199L121.836 38.0213C121.98 38.3675 122.306 38.6041 122.68 38.634L128.943 39.1361C129.829 39.2072 130.189 40.3137 129.513 40.8924L124.742 44.9799C124.457 45.2239 124.332 45.6066 124.419 45.9714L125.877 52.0831C126.084 52.9483 125.142 53.6321 124.383 53.1685L119.021 49.8934C118.701 49.6979 118.299 49.6979 117.979 49.8934L112.617 53.1685C111.858 53.6321 110.916 52.9483 111.123 52.0831L112.581 45.9714C112.668 45.6066 112.543 45.2239 112.258 44.9799L107.487 40.8924C106.811 40.3137 107.171 39.2072 108.057 39.1361L114.32 38.634C114.694 38.6041 115.02 38.3675 115.164 38.0213L117.577 32.2199Z" fill="#EE8834"/>
<path d="M144.577 32.2199C144.918 31.3986 146.082 31.3986 146.423 32.2199L148.836 38.0213C148.98 38.3675 149.306 38.6041 149.68 38.634L155.943 39.1361C156.829 39.2072 157.189 40.3137 156.513 40.8924L151.742 44.9799C151.457 45.2239 151.332 45.6066 151.419 45.9714L152.877 52.0831C153.084 52.9483 152.142 53.6321 151.383 53.1685L146.021 49.8934C145.701 49.6979 145.299 49.6979 144.979 49.8934L139.617 53.1685C138.858 53.6321 137.916 52.9483 138.123 52.0831L139.581 45.9714C139.668 45.6066 139.543 45.2239 139.258 44.9799L134.487 40.8924C133.811 40.3137 134.171 39.2072 135.057 39.1361L141.32 38.634C141.694 38.6041 142.02 38.3675 142.164 38.0213L144.577 32.2199Z" fill="#EE8834"/>
<path d="M171.577 32.2199C171.918 31.3986 173.082 31.3986 173.423 32.2199L175.836 38.0213C175.98 38.3675 176.306 38.6041 176.68 38.634L182.943 39.1361C183.829 39.2072 184.189 40.3137 183.513 40.8924L178.742 44.9799C178.457 45.2239 178.332 45.6066 178.419 45.9714L179.877 52.0831C180.084 52.9483 179.142 53.6321 178.383 53.1685L173.021 49.8934C172.701 49.6979 172.299 49.6979 171.979 49.8934L166.617 53.1685C165.858 53.6321 164.916 52.9483 165.123 52.0831L166.581 45.9714C166.668 45.6066 166.543 45.2239 166.258 44.9799L161.487 40.8924C160.811 40.3137 161.171 39.2072 162.057 39.1361L168.32 38.634C168.694 38.6041 169.02 38.3675 169.164 38.0213L171.577 32.2199Z" fill="#EE8834"/>
<path d="M198.577 32.2199C198.918 31.3986 200.082 31.3986 200.423 32.2199L202.836 38.0213C202.98 38.3675 203.306 38.6041 203.68 38.634L209.943 39.1361C210.829 39.2072 211.189 40.3137 210.513 40.8924L205.742 44.9799C205.457 45.2239 205.332 45.6066 205.419 45.9714L206.877 52.0831C207.084 52.9483 206.142 53.6321 205.383 53.1685L200.021 49.8934C199.701 49.6979 199.299 49.6979 198.979 49.8934L193.617 53.1685C192.858 53.6321 191.916 52.9483 192.123 52.0831L193.581 45.9714C193.668 45.6066 193.543 45.2239 193.258 44.9799L188.487 40.8924C187.811 40.3137 188.171 39.2072 189.057 39.1361L195.32 38.634C195.694 38.6041 196.02 38.3675 196.164 38.0213L198.577 32.2199Z" fill="#EE8834"/>
<defs>
<linearGradient id="paint0_linear" x1="40.2018" y1="44.898" x2="31.8818" y2="52.418" gradientUnits="userSpaceOnUse">
<stop stop-color="#829DFF"/>
<stop offset="1" stop-color="#7E7CF3"/>
</linearGradient>
<linearGradient id="paint1_linear" x1="40.2018" y1="44.898" x2="31.8818" y2="52.418" gradientUnits="userSpaceOnUse">
<stop stop-color="#829DFF"/>
<stop offset="1" stop-color="#7E7CF3"/>
</linearGradient>
<linearGradient id="paint2_linear" x1="23.5618" y1="18.9782" x2="31.8818" y2="11.4582" gradientUnits="userSpaceOnUse">
<stop stop-color="#FF9900"/>
<stop offset="1" stop-color="#FF7A00"/>
</linearGradient>
<linearGradient id="paint3_linear" x1="23.5618" y1="18.9782" x2="31.8818" y2="11.4582" gradientUnits="userSpaceOnUse">
<stop stop-color="#FF9900"/>
<stop offset="1" stop-color="#FF7A00"/>
</linearGradient>
<linearGradient id="paint4_linear" x1="24.1993" y1="21.5698" x2="24.1993" y2="51.8547" gradientUnits="userSpaceOnUse">
<stop stop-color="#765BE2"/>
<stop offset="0.9834" stop-color="#7F7DF3"/>
</linearGradient>
<linearGradient id="paint5_linear" x1="39.5673" y1="11.6179" x2="39.5673" y2="44.098" gradientUnits="userSpaceOnUse">
<stop stop-color="#FF7A00"/>
<stop offset="1" stop-color="#FF5810"/>
</linearGradient>
</defs>
</svg>
