<svg width="24" height="24" viewBox="0 0 24 24" fill="none" xmlns="http://www.w3.org/2000/svg">
<g filter="url(#filter0_b)">
<path fill-rule="evenodd" clip-rule="evenodd" d="M0 4.8C0 2.14903 2.14903 0 4.8 0H19.2C21.851 0 24 2.14903 24 4.8V6H0V4.8ZM9 2.4C8.66863 2.4 8.4 2.66863 8.4 3C8.4 3.33137 8.66863 3.6 9 3.6H15C15.3314 3.6 15.6 3.33137 15.6 3C15.6 2.66863 15.3314 2.4 15 2.4H9Z" fill="url(#paint0_linear)"/>
<path d="M0 7.2H24V19.2C24 21.851 21.851 24 19.2 24H4.8C2.14903 24 0 21.851 0 19.2V7.2Z" fill="url(#paint1_linear)"/>
</g>
<circle cx="7" cy="12.5" r="1.5" fill="white"/>
<circle cx="7" cy="17.5" r="1.5" fill="white"/>
<circle cx="12" cy="12.5" r="1.5" fill="white"/>
<circle cx="12" cy="17.5" r="1.5" fill="white"/>
<circle cx="17" cy="12.5" r="1.5" fill="white"/>
<circle cx="17" cy="17.5" r="1.5" fill="white"/>
<defs>
<filter id="filter0_b" x="-20" y="-20" width="64" height="64" filterUnits="userSpaceOnUse" color-interpolation-filters="sRGB">
<feFlood flood-opacity="0" result="BackgroundImageFix"/>
<feGaussianBlur in="BackgroundImage" stdDeviation="10"/>
<feComposite in2="SourceAlpha" operator="in" result="effect1_backgroundBlur"/>
<feBlend mode="normal" in="SourceGraphic" in2="effect1_backgroundBlur" result="shape"/>
</filter>
<linearGradient id="paint0_linear" x1="0.550459" y1="5.0817e-07" x2="25.1303" y2="1.21962" gradientUnits="userSpaceOnUse">
<stop stop-color="#5900EA"/>
<stop offset="1" stop-color="#9E00FF"/>
</linearGradient>
<linearGradient id="paint1_linear" x1="0.550459" y1="5.0817e-07" x2="25.1303" y2="1.21962" gradientUnits="userSpaceOnUse">
<stop stop-color="#5900EA"/>
<stop offset="1" stop-color="#9E00FF"/>
</linearGradient>
</defs>
</svg>
