<svg width="24" height="24" viewBox="0 0 24 24" fill="none" xmlns="http://www.w3.org/2000/svg">
<g filter="url(#filter0_b)">
<path d="M22.7186 21.2082C22.6718 21.9902 22.3365 22.651 21.7127 23.1906C21.089 23.7302 20.3638 24 19.5373 24H4.56654C3.74003 24 3.01488 23.7302 2.3911 23.1906C1.76732 22.651 1.42424 21.9902 1.36186 21.2082L0.0285256 3.65982C-0.0338525 2.65885 0.246849 1.79863 0.870631 1.07918C1.49441 0.359726 2.28973 0 3.2566 0H20.7303C21.6971 0 22.4964 0.359726 23.1279 1.07918C23.7595 1.79863 24.0441 2.65885 23.9817 3.65982L22.7186 21.2082ZM12.0051 3.00293C10.4457 3.00293 8.99149 3.39003 7.64256 4.16422C6.29363 4.93842 5.2527 6.05279 4.51975 7.50733L9.61917 9.54839L7.72443 5.77126C7.58408 5.61486 7.51391 5.435 7.51391 5.23167C7.51391 5.02835 7.58798 4.8524 7.73613 4.70381C7.88428 4.55523 8.05972 4.48094 8.26244 4.48094C8.46517 4.48094 8.63671 4.55914 8.77706 4.71554L12.5431 9.03226C13.2605 9.09482 13.8531 9.27468 14.3209 9.57185L19.4905 7.50733C18.7576 6.05279 17.7166 4.93842 16.3677 4.16422C15.0188 3.39003 13.5646 3.00293 12.0051 3.00293Z" fill="url(#paint0_linear)"/>
</g>
<defs>
<filter id="filter0_b" x="-19.98" y="-20" width="63.9701" height="64" filterUnits="userSpaceOnUse" color-interpolation-filters="sRGB">
<feFlood flood-opacity="0" result="BackgroundImageFix"/>
<feGaussianBlur in="BackgroundImage" stdDeviation="10"/>
<feComposite in2="SourceAlpha" operator="in" result="effect1_backgroundBlur"/>
<feBlend mode="normal" in="SourceGraphic" in2="effect1_backgroundBlur" result="shape"/>
</filter>
<linearGradient id="paint0_linear" x1="0.574884" y1="3.69108e-06" x2="25.1393" y2="1.24026" gradientUnits="userSpaceOnUse">
<stop stop-color="#0094FF"/>
<stop offset="1" stop-color="#00C5EA"/>
</linearGradient>
</defs>
</svg>
