<svg width="24" height="25" viewBox="0 0 24 25" fill="none" xmlns="http://www.w3.org/2000/svg">
<path fill-rule="evenodd" clip-rule="evenodd" d="M12 23.7668C17.5228 23.7668 22 19.3556 22 13.914C22 8.00233 17.2 1.69653 10 1.69653C12.4 4.84943 11.2 9.57878 7.6 11.1552C6.4 10.367 6 8.39644 6 7.21411C3.6 8.39644 2 11.3982 2 13.914C2 19.3556 6.47715 23.7668 12 23.7668ZM8.80036 16.6728C11.3814 16.6728 13.5232 14.8201 13.9306 12.3909C15.3829 13.099 16.3816 14.5739 16.3816 16.2787C16.3816 18.673 14.4117 20.6139 11.9816 20.6139C9.63823 20.6139 7.72271 18.809 7.58906 16.5331C7.97772 16.6244 8.38331 16.6728 8.80036 16.6728Z" fill="url(#paint0_linear)"/>
<defs>
<linearGradient id="paint0_linear" x1="31.0649" y1="18.8958" x2="-6.57737" y2="18.2239" gradientUnits="userSpaceOnUse">
<stop offset="0.000992268" stop-color="#FFE000"/>
<stop offset="1" stop-color="#FF2E00"/>
</linearGradient>
</defs>
</svg>
