<svg width="20" height="22" viewBox="0 0 20 22" fill="none" xmlns="http://www.w3.org/2000/svg">
<path d="M7.33942 6.28642C7.40168 6.89004 7.39273 7.48499 7.33942 8.03736C7.25444 8.834 7.12158 10.4432 7.18888 11.66C7.20467 11.9455 7.01128 12.2066 6.73023 12.2545L2.64496 12.95C2.37529 12.9959 2.11558 12.8295 2.02825 12.5694C1.68266 11.5404 1.1255 10.3972 0.808887 9.7537C0.417267 8.94318 0.15054 7.99409 0.0436435 6.95881C-0.267711 3.81114 1.12059 1.10278 3.13096 0.92172C5.14197 0.732246 7.02803 3.13841 7.33942 6.28642Z" fill="#6252FF"/>
<path d="M12.6607 8.30554C12.9721 5.15754 14.858 2.75137 16.8689 2.94085C18.8798 3.12191 20.2677 5.83027 19.9564 8.97793C19.8491 10.0132 19.5828 10.9623 19.1908 11.7728C18.8742 12.4164 18.3171 13.5596 17.9715 14.5886C17.8842 14.8486 17.6245 15.015 17.3548 14.9691L13.2693 14.2736C12.9882 14.2258 12.7948 13.9646 12.8107 13.679C12.8783 12.4622 12.7457 10.8531 12.6607 10.0565C12.6071 9.50411 12.5985 8.90916 12.6607 8.30554Z" fill="#6252FF"/>
<path d="M12.1352 17.3009C12.1982 16.6161 12.3415 15.9662 12.5401 15.3799C12.5709 15.2989 12.6471 15.2471 12.7323 15.262L17.2191 16.0462C17.4808 16.0919 17.6461 16.3397 17.6461 16.6062C17.6461 16.8591 17.6367 17.1112 17.6102 17.3823C17.3217 20.3946 15.9379 21.594 14.5805 21.4677C12.7191 21.2871 11.8469 20.3129 12.1352 17.3009Z" fill="#6252FF"/>
<path d="M7.46063 13.3598C7.42867 13.2792 7.35263 13.227 7.2675 13.2419L2.78066 14.0261C2.51896 14.0718 2.35418 14.3196 2.35418 14.5861C2.35418 14.839 2.36292 15.0911 2.39018 15.3622C2.67752 18.3745 4.06211 19.5738 5.41948 19.4476C7.28057 19.267 8.15273 18.2928 7.86512 15.2808C7.80212 14.5959 7.65813 13.9461 7.46063 13.3598Z" fill="#6252FF"/>
</svg>
