<svg width="56" height="68" viewBox="0 0 56 68" fill="none" xmlns="http://www.w3.org/2000/svg">
<path d="M50.3992 40.0886C50.3992 46.1863 44.3902 52.0251 40.9752 55.0093C35.2387 59.5497 29.6388 62.0144 27.9997 62.4044C26.3606 62.0147 20.7607 59.5497 15.1611 55.0093C11.6095 52.0251 5.59956 46.1867 5.59956 40.0886V13.2336C13.5223 12.4548 21.3072 10.12 28 6.48684C34.9653 10.3793 42.4777 12.5846 50.3992 13.3634V40.0886ZM55.5899 8.1736C45.8926 8.1736 36.4677 5.44875 28 0C19.6681 5.44875 9.69734 8.1736 0 8.1736V40.0886C0 54.8795 22.6729 67.8528 28 67.8528C33.3262 67.8528 56 54.8795 56 40.0886V8.1736H55.5899Z" fill="#04D900"/>
<path d="M41.3236 55.4617C44.83 52.4198 51 46.468 51 40.2522V13.0097C42.8662 12.2158 35.1525 9.96777 28.0006 6C21.1285 9.70346 13.1351 12.0835 5 12.8774V40.2522C5 46.4683 11.171 52.4198 14.8178 55.4617C20.5674 60.0901 26.3173 62.6027 28.0003 63C29.6833 62.6024 35.4333 60.0901 41.3236 55.4617Z" fill="#F0FFEB"/>
<path d="M16.7822 29.7551C16.5684 29.7551 16.3549 29.8395 16.1966 30.0066L12.2966 34.1269C12.1493 34.2827 12.0715 34.4878 12.0775 34.7038C12.0834 34.9198 12.1728 35.1202 12.3286 35.2672L24.5677 46.851C24.7232 46.9984 24.9242 47.0733 25.1352 47.0627C25.3459 47.052 25.539 46.9567 25.6788 46.7943L43.7278 25.8216C43.868 25.6589 43.9363 25.4504 43.92 25.235C43.904 25.0196 43.8053 24.8237 43.6426 24.6838L39.3438 20.9836C39.1811 20.8435 38.9726 20.7751 38.7569 20.7914C38.5415 20.8077 38.3462 20.9062 38.2067 21.0689L25.1446 36.2448C25.0038 36.4088 24.8097 36.5053 24.5975 36.5163C24.3846 36.5276 24.1802 36.4514 24.0222 36.3021L17.3362 29.9752C17.1807 29.8282 16.9813 29.7551 16.7822 29.7551Z" fill="#04D900"/>
</svg>
