<svg width="28" height="51" viewBox="0 0 28 51" fill="none" xmlns="http://www.w3.org/2000/svg">
<path opacity="0.8" d="M21.6269 40.5186H5.15804C2.30956 40.5186 0 38.2091 0 35.3606V14.805C0 11.9565 2.30956 9.64697 5.15804 9.64697H21.6269C24.4753 9.64697 26.7849 11.9565 26.7849 14.805V35.3613C26.7849 38.2091 24.4753 40.5186 21.6269 40.5186Z" fill="black"/>
<path d="M27.0434 22.2875C26.5147 22.2875 26.0859 21.8587 26.0859 21.33V17.2585C26.0859 16.7298 26.5147 16.3018 27.0434 16.3018C27.5722 16.3018 28.0002 16.7306 28.0002 17.2585V21.33C28.001 21.8587 27.5722 22.2875 27.0434 22.2875Z" fill="#333333"/>
<path d="M26.8196 34.0466C26.6373 34.0466 26.4893 33.8986 26.4893 33.7163V25.6033C26.4893 25.421 26.6373 25.2729 26.8196 25.2729C27.0019 25.2729 27.15 25.421 27.15 25.6033V33.7163C27.15 33.8986 27.0019 34.0466 26.8196 34.0466Z" fill="#333333"/>
<path opacity="0.7" d="M22.8723 8.70514H3.91162L4.89612 2.82879C5.16959 1.19598 6.58289 0 8.23831 0H18.5456C20.201 0 21.6136 1.19598 21.8871 2.82806L22.8723 8.70514Z" fill="black"/>
<path opacity="0.7" d="M22.8718 41.4609H3.91113L4.89563 47.3373C5.1691 48.9701 6.5824 50.1661 8.23782 50.1661H18.5451C20.2006 50.1661 21.6131 48.9701 21.8866 47.338L22.8718 41.4609Z" fill="black"/>
<path d="M11.9984 29L8.70655 25.7055C8.31629 25.315 8.31641 24.682 8.70683 24.2916L9.07207 23.9264C9.46259 23.5358 10.0958 23.5358 10.4863 23.9264L12.0016 25.4417L15.7393 21.7066C16.1298 21.3163 16.7628 21.3164 17.1532 21.7069L17.5181 22.0717C17.9087 22.4624 17.9086 23.0958 17.5177 23.4863L11.9984 29Z" fill="#00FF1B"/>
</svg>
