<svg width="283" height="182" viewBox="0 0 283 182" fill="none" xmlns="http://www.w3.org/2000/svg">
<rect x="4" y="12" width="279" height="159" fill="url(#paint0_linear)"/>
<path opacity="0.5" d="M89.122 151C89.0487 151 88.9863 150.974 88.935 150.923C88.8837 150.872 88.858 150.809 88.858 150.736V143.575C88.858 143.494 88.88 143.428 88.924 143.377C88.9753 143.326 89.0413 143.3 89.122 143.3H91.971C92.8657 143.3 93.566 143.509 94.072 143.927C94.5853 144.345 94.842 144.939 94.842 145.709C94.842 146.244 94.71 146.695 94.446 147.062C94.1893 147.421 93.83 147.682 93.368 147.843L94.974 150.648C94.996 150.692 95.007 150.732 95.007 150.769C95.007 150.835 94.9813 150.89 94.93 150.934C94.886 150.978 94.8347 151 94.776 151H93.775C93.6577 151 93.566 150.974 93.5 150.923C93.4413 150.872 93.3863 150.798 93.335 150.703L91.916 148.096H90.387V150.736C90.387 150.809 90.3613 150.872 90.31 150.923C90.266 150.974 90.2037 151 90.123 151H89.122ZM91.938 146.853C92.378 146.853 92.708 146.754 92.928 146.556C93.1553 146.358 93.269 146.072 93.269 145.698C93.269 145.324 93.1553 145.034 92.928 144.829C92.708 144.624 92.378 144.521 91.938 144.521H90.387V146.853H91.938ZM98.5269 151.11C97.7129 151.11 97.0639 150.875 96.5799 150.406C96.1032 149.929 95.8502 149.262 95.8209 148.404L95.8099 148.129L95.8209 147.854C95.8576 147.018 96.1142 146.362 96.5909 145.885C97.0749 145.408 97.7202 145.17 98.5269 145.17C99.3922 145.17 100.06 145.434 100.529 145.962C101.006 146.49 101.244 147.194 101.244 148.074V148.305C101.244 148.378 101.218 148.441 101.167 148.492C101.116 148.543 101.05 148.569 100.969 148.569H97.3169V148.657C97.3316 149.06 97.4416 149.401 97.6469 149.68C97.8596 149.951 98.1492 150.087 98.5159 150.087C98.9486 150.087 99.2969 149.918 99.5609 149.581C99.6269 149.5 99.6782 149.449 99.7149 149.427C99.7589 149.405 99.8212 149.394 99.9019 149.394H100.848C100.914 149.394 100.969 149.416 101.013 149.46C101.064 149.497 101.09 149.544 101.09 149.603C101.09 149.779 100.984 149.988 100.771 150.23C100.566 150.465 100.269 150.67 99.8799 150.846C99.4912 151.022 99.0402 151.11 98.5269 151.11ZM99.7479 147.645V147.612C99.7479 147.179 99.6379 146.831 99.4179 146.567C99.2052 146.303 98.9082 146.171 98.5269 146.171C98.1456 146.171 97.8486 146.303 97.6359 146.567C97.4232 146.831 97.3169 147.179 97.3169 147.612V147.645H99.7479ZM104.579 151.11C104.029 151.11 103.567 151.029 103.193 150.868C102.819 150.699 102.54 150.505 102.357 150.285C102.181 150.058 102.093 149.863 102.093 149.702C102.093 149.629 102.118 149.57 102.17 149.526C102.221 149.482 102.28 149.46 102.346 149.46H103.215C103.281 149.46 103.336 149.486 103.38 149.537C103.409 149.559 103.486 149.625 103.611 149.735C103.735 149.852 103.882 149.944 104.051 150.01C104.219 150.076 104.406 150.109 104.612 150.109C104.905 150.109 105.147 150.05 105.338 149.933C105.528 149.816 105.624 149.654 105.624 149.449C105.624 149.295 105.58 149.17 105.492 149.075C105.411 148.98 105.261 148.895 105.041 148.822C104.821 148.741 104.494 148.657 104.062 148.569C103.438 148.437 102.976 148.235 102.676 147.964C102.382 147.693 102.236 147.333 102.236 146.886C102.236 146.593 102.324 146.318 102.5 146.061C102.676 145.797 102.936 145.584 103.281 145.423C103.633 145.254 104.051 145.17 104.535 145.17C105.026 145.17 105.451 145.251 105.811 145.412C106.17 145.566 106.441 145.753 106.625 145.973C106.815 146.186 106.911 146.376 106.911 146.545C106.911 146.611 106.885 146.67 106.834 146.721C106.79 146.765 106.735 146.787 106.669 146.787H105.855C105.796 146.787 105.734 146.761 105.668 146.71C105.616 146.673 105.536 146.604 105.426 146.501C105.316 146.398 105.187 146.318 105.041 146.259C104.894 146.2 104.722 146.171 104.524 146.171C104.252 146.171 104.04 146.23 103.886 146.347C103.739 146.464 103.666 146.618 103.666 146.809C103.666 146.948 103.702 147.062 103.776 147.15C103.849 147.238 103.992 147.322 104.205 147.403C104.417 147.484 104.736 147.564 105.162 147.645C105.866 147.784 106.368 148.001 106.669 148.294C106.977 148.587 107.131 148.947 107.131 149.372C107.131 149.885 106.907 150.303 106.46 150.626C106.012 150.949 105.385 151.11 104.579 151.11ZM110.83 151C110.162 151 109.66 150.828 109.323 150.483C108.993 150.131 108.828 149.618 108.828 148.943V146.446H107.959C107.885 146.446 107.823 146.42 107.772 146.369C107.72 146.31 107.695 146.244 107.695 146.171V145.544C107.695 145.471 107.72 145.408 107.772 145.357C107.823 145.306 107.885 145.28 107.959 145.28H108.828V143.454C108.828 143.373 108.853 143.311 108.905 143.267C108.956 143.216 109.018 143.19 109.092 143.19H109.983C110.063 143.19 110.126 143.216 110.17 143.267C110.221 143.311 110.247 143.373 110.247 143.454V145.28H111.622C111.702 145.28 111.765 145.306 111.809 145.357C111.86 145.401 111.886 145.463 111.886 145.544V146.171C111.886 146.252 111.86 146.318 111.809 146.369C111.757 146.42 111.695 146.446 111.622 146.446H110.247V148.833C110.247 149.148 110.302 149.387 110.412 149.548C110.522 149.709 110.705 149.79 110.962 149.79H111.721C111.794 149.79 111.856 149.816 111.908 149.867C111.959 149.918 111.985 149.981 111.985 150.054V150.736C111.985 150.809 111.959 150.872 111.908 150.923C111.864 150.974 111.801 151 111.721 151H110.83Z" fill="black"/>
<path opacity="0.5" d="M14.123 151C14.013 151 13.925 150.971 13.859 150.912C13.793 150.853 13.7527 150.773 13.738 150.67L12.429 143.619L12.418 143.531C12.418 143.465 12.44 143.41 12.484 143.366C12.5353 143.322 12.5903 143.3 12.649 143.3H13.617C13.8003 143.3 13.903 143.373 13.925 143.52L14.838 148.503L15.828 145.28C15.9013 145.097 16.0223 145.005 16.191 145.005H16.785C16.9683 145.005 17.0857 145.097 17.137 145.28L18.138 148.492L19.051 143.52C19.0657 143.439 19.095 143.384 19.139 143.355C19.1903 143.318 19.2637 143.3 19.359 143.3H20.327C20.3857 143.3 20.437 143.322 20.481 143.366C20.525 143.41 20.547 143.465 20.547 143.531C20.547 143.568 20.5433 143.597 20.536 143.619L19.227 150.67C19.1903 150.89 19.062 151 18.842 151H18.105C18.0023 151 17.918 150.974 17.852 150.923C17.786 150.872 17.742 150.806 17.72 150.725L16.488 147.051L15.256 150.725C15.1827 150.908 15.0507 151 14.86 151H14.123ZM24.0216 151.11C23.1636 151.11 22.5 150.89 22.0306 150.45C21.5613 150.003 21.3083 149.394 21.2716 148.624L21.2606 148.14L21.2716 147.656C21.3083 146.893 21.565 146.288 22.0416 145.841C22.5183 145.394 23.1783 145.17 24.0216 145.17C24.865 145.17 25.525 145.394 26.0016 145.841C26.4783 146.288 26.735 146.893 26.7716 147.656C26.779 147.744 26.7826 147.905 26.7826 148.14C26.7826 148.375 26.779 148.536 26.7716 148.624C26.735 149.394 26.482 150.003 26.0126 150.45C25.5433 150.89 24.8796 151.11 24.0216 151.11ZM24.0216 150.021C24.4103 150.021 24.711 149.9 24.9236 149.658C25.1363 149.409 25.2536 149.046 25.2756 148.569C25.283 148.496 25.2866 148.353 25.2866 148.14C25.2866 147.927 25.283 147.784 25.2756 147.711C25.2536 147.234 25.1363 146.875 24.9236 146.633C24.711 146.384 24.4103 146.259 24.0216 146.259C23.633 146.259 23.3323 146.384 23.1196 146.633C22.907 146.875 22.7896 147.234 22.7676 147.711L22.7566 148.14L22.7676 148.569C22.7896 149.046 22.907 149.409 23.1196 149.658C23.3323 149.9 23.633 150.021 24.0216 150.021ZM28.2654 151C28.1921 151 28.1297 150.974 28.0784 150.923C28.0271 150.872 28.0014 150.809 28.0014 150.736V145.555C28.0014 145.482 28.0271 145.419 28.0784 145.368C28.1297 145.309 28.1921 145.28 28.2654 145.28H29.1564C29.2371 145.28 29.3031 145.306 29.3544 145.357C29.4057 145.408 29.4314 145.474 29.4314 145.555V146.006C29.6074 145.771 29.8274 145.592 30.0914 145.467C30.3627 145.342 30.6707 145.28 31.0154 145.28H31.4664C31.5471 145.28 31.6094 145.306 31.6534 145.357C31.7047 145.401 31.7304 145.463 31.7304 145.544V146.336C31.7304 146.409 31.7047 146.472 31.6534 146.523C31.6094 146.574 31.5471 146.6 31.4664 146.6H30.6084C30.2637 146.6 29.9924 146.699 29.7944 146.897C29.5964 147.095 29.4974 147.366 29.4974 147.711V150.736C29.4974 150.809 29.4717 150.872 29.4204 150.923C29.3691 150.974 29.3031 151 29.2224 151H28.2654ZM32.8633 151C32.79 151 32.7276 150.974 32.6763 150.923C32.625 150.872 32.5993 150.809 32.5993 150.736V143.454C32.5993 143.373 32.625 143.311 32.6763 143.267C32.7276 143.216 32.79 143.19 32.8633 143.19H33.7543C33.835 143.19 33.8973 143.216 33.9413 143.267C33.9926 143.311 34.0183 143.373 34.0183 143.454V147.216L35.8663 145.467C35.8883 145.452 35.925 145.423 35.9763 145.379C36.0203 145.342 36.0643 145.317 36.1083 145.302C36.1523 145.287 36.2073 145.28 36.2733 145.28H37.2963C37.3696 145.28 37.4283 145.302 37.4723 145.346C37.5163 145.39 37.5383 145.449 37.5383 145.522C37.5383 145.588 37.5016 145.654 37.4283 145.72L35.1623 147.843L37.7033 150.571C37.7766 150.644 37.8133 150.707 37.8133 150.758C37.8133 150.831 37.7876 150.89 37.7363 150.934C37.6923 150.978 37.6373 151 37.5713 151H36.5263C36.4236 151 36.3466 150.989 36.2953 150.967C36.2513 150.938 36.1926 150.886 36.1193 150.813L34.0183 148.602V150.736C34.0183 150.809 33.9926 150.872 33.9413 150.923C33.8973 150.974 33.835 151 33.7543 151H32.8633ZM40.8976 151.11C40.0396 151.11 39.3759 150.89 38.9066 150.45C38.4373 150.003 38.1843 149.394 38.1476 148.624L38.1366 148.14L38.1476 147.656C38.1843 146.893 38.4409 146.288 38.9176 145.841C39.3943 145.394 40.0543 145.17 40.8976 145.17C41.7409 145.17 42.4009 145.394 42.8776 145.841C43.3543 146.288 43.6109 146.893 43.6476 147.656C43.6549 147.744 43.6586 147.905 43.6586 148.14C43.6586 148.375 43.6549 148.536 43.6476 148.624C43.6109 149.394 43.3579 150.003 42.8886 150.45C42.4193 150.89 41.7556 151.11 40.8976 151.11ZM40.8976 150.021C41.2863 150.021 41.5869 149.9 41.7996 149.658C42.0123 149.409 42.1296 149.046 42.1516 148.569C42.1589 148.496 42.1626 148.353 42.1626 148.14C42.1626 147.927 42.1589 147.784 42.1516 147.711C42.1296 147.234 42.0123 146.875 41.7996 146.633C41.5869 146.384 41.2863 146.259 40.8976 146.259C40.5089 146.259 40.2083 146.384 39.9956 146.633C39.7829 146.875 39.6656 147.234 39.6436 147.711L39.6326 148.14L39.6436 148.569C39.6656 149.046 39.7829 149.409 39.9956 149.658C40.2083 149.9 40.5089 150.021 40.8976 150.021ZM47.0004 151.11C46.3257 151.11 45.794 150.89 45.4054 150.45C45.0167 150.003 44.8224 149.398 44.8224 148.635V145.544C44.8224 145.471 44.848 145.408 44.8994 145.357C44.9507 145.306 45.013 145.28 45.0864 145.28H46.0544C46.135 145.28 46.1974 145.306 46.2414 145.357C46.2927 145.401 46.3184 145.463 46.3184 145.544V148.569C46.3184 149.478 46.718 149.933 47.5174 149.933C47.8987 149.933 48.1994 149.812 48.4194 149.57C48.6467 149.328 48.7604 148.994 48.7604 148.569V145.544C48.7604 145.471 48.786 145.408 48.8374 145.357C48.8887 145.306 48.951 145.28 49.0244 145.28H49.9924C50.073 145.28 50.1354 145.306 50.1794 145.357C50.2307 145.401 50.2564 145.463 50.2564 145.544V150.736C50.2564 150.809 50.2307 150.872 50.1794 150.923C50.1354 150.974 50.073 151 49.9924 151H49.1014C49.028 151 48.9657 150.974 48.9144 150.923C48.863 150.872 48.8374 150.809 48.8374 150.736V150.285C48.4267 150.835 47.8144 151.11 47.0004 151.11ZM54.2944 151C53.6271 151 53.1247 150.828 52.7874 150.483C52.4574 150.131 52.2924 149.618 52.2924 148.943V146.446H51.4234C51.3501 146.446 51.2877 146.42 51.2364 146.369C51.1851 146.31 51.1594 146.244 51.1594 146.171V145.544C51.1594 145.471 51.1851 145.408 51.2364 145.357C51.2877 145.306 51.3501 145.28 51.4234 145.28H52.2924V143.454C52.2924 143.373 52.3181 143.311 52.3694 143.267C52.4207 143.216 52.4831 143.19 52.5564 143.19H53.4474C53.5281 143.19 53.5904 143.216 53.6344 143.267C53.6857 143.311 53.7114 143.373 53.7114 143.454V145.28H55.0864C55.1671 145.28 55.2294 145.306 55.2734 145.357C55.3247 145.401 55.3504 145.463 55.3504 145.544V146.171C55.3504 146.252 55.3247 146.318 55.2734 146.369C55.2221 146.42 55.1597 146.446 55.0864 146.446H53.7114V148.833C53.7114 149.148 53.7664 149.387 53.8764 149.548C53.9864 149.709 54.1697 149.79 54.4264 149.79H55.1854C55.2587 149.79 55.3211 149.816 55.3724 149.867C55.4237 149.918 55.4494 149.981 55.4494 150.054V150.736C55.4494 150.809 55.4237 150.872 55.3724 150.923C55.3284 150.974 55.2661 151 55.1854 151H54.2944Z" fill="black"/>
<path opacity="0.5" d="M78.036 179C77.9627 179 77.9003 178.978 77.849 178.934C77.805 178.883 77.783 178.82 77.783 178.747V172.587L75.957 173.995C75.9057 174.039 75.8507 174.061 75.792 174.061C75.726 174.061 75.6637 174.024 75.605 173.951L75.319 173.588C75.2823 173.537 75.264 173.485 75.264 173.434C75.264 173.346 75.3007 173.276 75.374 173.225L77.772 171.377C77.8527 171.326 77.948 171.3 78.058 171.3H78.619C78.6923 171.3 78.751 171.326 78.795 171.377C78.8463 171.421 78.872 171.48 78.872 171.553V178.747C78.872 178.82 78.8463 178.883 78.795 178.934C78.751 178.978 78.6923 179 78.619 179H78.036ZM80.7831 179C80.7097 179 80.6474 178.978 80.5961 178.934C80.5521 178.883 80.5301 178.82 80.5301 178.747V171.443C80.5301 171.37 80.5521 171.311 80.5961 171.267C80.6474 171.216 80.7097 171.19 80.7831 171.19H81.3331C81.4064 171.19 81.4651 171.216 81.5091 171.267C81.5604 171.311 81.5861 171.37 81.5861 171.443V174.006C81.7987 173.735 82.0481 173.529 82.3341 173.39C82.6201 173.243 82.9757 173.17 83.4011 173.17C84.1051 173.17 84.6514 173.397 85.0401 173.852C85.4361 174.299 85.6341 174.897 85.6341 175.645V178.747C85.6341 178.82 85.6084 178.883 85.5571 178.934C85.5131 178.978 85.4544 179 85.3811 179H84.8311C84.7577 179 84.6954 178.978 84.6441 178.934C84.6001 178.883 84.5781 178.82 84.5781 178.747V175.7C84.5781 175.179 84.4497 174.776 84.1931 174.49C83.9437 174.204 83.5807 174.061 83.1041 174.061C82.6421 174.061 82.2717 174.208 81.9931 174.501C81.7217 174.787 81.5861 175.187 81.5861 175.7V178.747C81.5861 178.82 81.5604 178.883 81.5091 178.934C81.4651 178.978 81.4064 179 81.3331 179H80.7831Z" fill="black"/>
<path opacity="0.5" d="M149.792 179C149.719 179 149.656 178.978 149.605 178.934C149.561 178.883 149.539 178.82 149.539 178.747V178.395C149.539 178.226 149.631 178.065 149.814 177.911L152.146 175.579C152.711 175.11 153.099 174.728 153.312 174.435C153.525 174.134 153.631 173.819 153.631 173.489C153.631 173.064 153.51 172.73 153.268 172.488C153.033 172.246 152.689 172.125 152.234 172.125C151.809 172.125 151.468 172.253 151.211 172.51C150.954 172.759 150.797 173.093 150.738 173.511C150.723 173.599 150.687 173.665 150.628 173.709C150.577 173.746 150.518 173.764 150.452 173.764H149.88C149.814 173.764 149.759 173.746 149.715 173.709C149.671 173.665 149.649 173.614 149.649 173.555C149.664 173.159 149.77 172.781 149.968 172.422C150.166 172.055 150.456 171.758 150.837 171.531C151.226 171.296 151.691 171.179 152.234 171.179C153.063 171.179 153.686 171.395 154.104 171.828C154.529 172.253 154.742 172.796 154.742 173.456C154.742 173.918 154.625 174.336 154.39 174.71C154.163 175.077 153.807 175.473 153.323 175.898L151.211 178.043H154.643C154.724 178.043 154.786 178.069 154.83 178.12C154.881 178.164 154.907 178.223 154.907 178.296V178.747C154.907 178.82 154.881 178.883 154.83 178.934C154.779 178.978 154.716 179 154.643 179H149.792ZM156.534 179C156.461 179 156.398 178.978 156.347 178.934C156.303 178.883 156.281 178.82 156.281 178.747V171.443C156.281 171.37 156.303 171.311 156.347 171.267C156.398 171.216 156.461 171.19 156.534 171.19H157.084C157.157 171.19 157.216 171.216 157.26 171.267C157.311 171.311 157.337 171.37 157.337 171.443V174.006C157.55 173.735 157.799 173.529 158.085 173.39C158.371 173.243 158.727 173.17 159.152 173.17C159.856 173.17 160.402 173.397 160.791 173.852C161.187 174.299 161.385 174.897 161.385 175.645V178.747C161.385 178.82 161.359 178.883 161.308 178.934C161.264 178.978 161.205 179 161.132 179H160.582C160.509 179 160.446 178.978 160.395 178.934C160.351 178.883 160.329 178.82 160.329 178.747V175.7C160.329 175.179 160.201 174.776 159.944 174.49C159.695 174.204 159.332 174.061 158.855 174.061C158.393 174.061 158.023 174.208 157.744 174.501C157.473 174.787 157.337 175.187 157.337 175.7V178.747C157.337 178.82 157.311 178.883 157.26 178.934C157.216 178.978 157.157 179 157.084 179H156.534Z" fill="black"/>
<path opacity="0.5" d="M223.948 179.11C223.251 179.11 222.712 178.886 222.331 178.439C221.95 177.984 221.759 177.383 221.759 176.635V173.533C221.759 173.46 221.781 173.401 221.825 173.357C221.876 173.306 221.939 173.28 222.012 173.28H222.562C222.635 173.28 222.694 173.306 222.738 173.357C222.789 173.401 222.815 173.46 222.815 173.533V176.58C222.815 177.673 223.292 178.219 224.245 178.219C224.707 178.219 225.074 178.076 225.345 177.79C225.616 177.497 225.752 177.093 225.752 176.58V173.533C225.752 173.46 225.774 173.401 225.818 173.357C225.869 173.306 225.932 173.28 226.005 173.28H226.555C226.628 173.28 226.687 173.306 226.731 173.357C226.775 173.401 226.797 173.46 226.797 173.533V178.747C226.797 178.82 226.775 178.883 226.731 178.934C226.687 178.978 226.628 179 226.555 179H226.038C225.965 179 225.902 178.978 225.851 178.934C225.807 178.883 225.785 178.82 225.785 178.747V178.263C225.58 178.542 225.33 178.754 225.037 178.901C224.744 179.04 224.381 179.11 223.948 179.11ZM228.695 181.09C228.622 181.09 228.56 181.064 228.508 181.013C228.464 180.969 228.442 180.91 228.442 180.837V173.533C228.442 173.46 228.464 173.401 228.508 173.357C228.56 173.306 228.622 173.28 228.695 173.28H229.201C229.275 173.28 229.333 173.306 229.377 173.357C229.429 173.401 229.454 173.46 229.454 173.533V174.017C229.865 173.452 230.466 173.17 231.258 173.17C232.028 173.17 232.604 173.412 232.985 173.896C233.374 174.38 233.583 175.003 233.612 175.766C233.62 175.847 233.623 175.971 233.623 176.14C233.623 176.309 233.62 176.433 233.612 176.514C233.583 177.269 233.374 177.893 232.985 178.384C232.597 178.868 232.021 179.11 231.258 179.11C230.496 179.11 229.902 178.835 229.476 178.285V180.837C229.476 180.91 229.454 180.969 229.41 181.013C229.366 181.064 229.308 181.09 229.234 181.09H228.695ZM231.027 178.219C231.548 178.219 231.926 178.058 232.16 177.735C232.402 177.412 232.534 176.987 232.556 176.459C232.564 176.386 232.567 176.279 232.567 176.14C232.567 174.754 232.054 174.061 231.027 174.061C230.521 174.061 230.14 174.23 229.883 174.567C229.634 174.897 229.498 175.293 229.476 175.755L229.465 176.173L229.476 176.602C229.491 177.035 229.63 177.412 229.894 177.735C230.158 178.058 230.536 178.219 231.027 178.219ZM239.677 179C238.518 179 237.939 178.355 237.939 177.064V174.16H237.081C237.008 174.16 236.945 174.138 236.894 174.094C236.85 174.043 236.828 173.98 236.828 173.907V173.533C236.828 173.46 236.85 173.401 236.894 173.357C236.945 173.306 237.008 173.28 237.081 173.28H237.939V171.443C237.939 171.37 237.961 171.311 238.005 171.267C238.056 171.216 238.119 171.19 238.192 171.19H238.709C238.782 171.19 238.841 171.216 238.885 171.267C238.936 171.311 238.962 171.37 238.962 171.443V173.28H240.326C240.399 173.28 240.458 173.306 240.502 173.357C240.553 173.401 240.579 173.46 240.579 173.533V173.907C240.579 173.98 240.553 174.043 240.502 174.094C240.458 174.138 240.399 174.16 240.326 174.16H238.962V176.987C238.962 177.354 239.024 177.632 239.149 177.823C239.274 178.006 239.479 178.098 239.765 178.098H240.436C240.509 178.098 240.568 178.124 240.612 178.175C240.663 178.219 240.689 178.278 240.689 178.351V178.747C240.689 178.82 240.663 178.883 240.612 178.934C240.568 178.978 240.509 179 240.436 179H239.677ZM244.084 179.11C243.277 179.11 242.65 178.883 242.203 178.428C241.763 177.973 241.528 177.368 241.499 176.613L241.488 176.14L241.499 175.667C241.528 174.919 241.766 174.318 242.214 173.863C242.661 173.401 243.284 173.17 244.084 173.17C244.883 173.17 245.506 173.401 245.954 173.863C246.401 174.318 246.639 174.919 246.669 175.667C246.676 175.748 246.68 175.905 246.68 176.14C246.68 176.375 246.676 176.532 246.669 176.613C246.639 177.368 246.401 177.973 245.954 178.428C245.514 178.883 244.89 179.11 244.084 179.11ZM244.084 178.263C244.546 178.263 244.909 178.116 245.173 177.823C245.444 177.53 245.591 177.108 245.613 176.558C245.62 176.485 245.624 176.345 245.624 176.14C245.624 175.935 245.62 175.795 245.613 175.722C245.591 175.172 245.444 174.75 245.173 174.457C244.909 174.164 244.546 174.017 244.084 174.017C243.622 174.017 243.255 174.164 242.984 174.457C242.712 174.75 242.569 175.172 242.555 175.722L242.544 176.14L242.555 176.558C242.569 177.108 242.712 177.53 242.984 177.823C243.255 178.116 243.622 178.263 244.084 178.263ZM253.217 179.11C252.638 179.11 252.136 179.018 251.71 178.835C251.292 178.644 250.973 178.399 250.753 178.098C250.541 177.797 250.427 177.482 250.412 177.152C250.412 177.086 250.434 177.035 250.478 176.998C250.522 176.954 250.577 176.932 250.643 176.932H251.182C251.336 176.932 251.439 177.013 251.49 177.174C251.586 177.541 251.791 177.801 252.106 177.955C252.422 178.102 252.792 178.175 253.217 178.175C253.738 178.175 254.152 178.054 254.46 177.812C254.768 177.563 254.922 177.207 254.922 176.745C254.922 175.858 254.383 175.414 253.305 175.414H252.26C252.187 175.414 252.125 175.392 252.073 175.348C252.029 175.297 252.007 175.234 252.007 175.161V174.864C252.007 174.761 252.048 174.662 252.128 174.567L254.262 172.235H251.017C250.944 172.235 250.882 172.213 250.83 172.169C250.786 172.118 250.764 172.055 250.764 171.982V171.564C250.764 171.491 250.786 171.428 250.83 171.377C250.882 171.326 250.944 171.3 251.017 171.3H255.406C255.487 171.3 255.549 171.326 255.593 171.377C255.645 171.421 255.67 171.483 255.67 171.564V171.96C255.67 172.048 255.63 172.132 255.549 172.213L253.426 174.578L253.602 174.589C254.35 174.611 254.941 174.805 255.373 175.172C255.806 175.539 256.022 176.074 256.022 176.778C256.022 177.255 255.901 177.669 255.659 178.021C255.417 178.373 255.084 178.644 254.658 178.835C254.233 179.018 253.753 179.11 253.217 179.11ZM260.033 179.11C259.087 179.11 258.394 178.835 257.954 178.285C257.514 177.735 257.279 177.013 257.25 176.118C257.243 175.92 257.239 175.601 257.239 175.161C257.239 174.706 257.243 174.376 257.25 174.171C257.272 173.291 257.507 172.576 257.954 172.026C258.401 171.469 259.094 171.19 260.033 171.19C260.979 171.19 261.676 171.469 262.123 172.026C262.57 172.576 262.805 173.291 262.827 174.171C262.842 174.582 262.849 174.912 262.849 175.161C262.849 175.403 262.842 175.722 262.827 176.118C262.798 177.013 262.563 177.735 262.123 178.285C261.683 178.835 260.986 179.11 260.033 179.11ZM260.033 178.164C260.583 178.164 260.997 177.981 261.276 177.614C261.562 177.247 261.712 176.73 261.727 176.063C261.742 175.638 261.749 175.33 261.749 175.139C261.749 174.934 261.742 174.633 261.727 174.237C261.712 173.577 261.566 173.06 261.287 172.686C261.008 172.312 260.59 172.125 260.033 172.125C259.483 172.125 259.065 172.312 258.779 172.686C258.5 173.06 258.354 173.577 258.339 174.237L258.328 175.139L258.339 176.063C258.354 176.73 258.5 177.247 258.779 177.614C259.065 177.981 259.483 178.164 260.033 178.164ZM264.606 179C264.533 179 264.471 178.978 264.419 178.934C264.375 178.883 264.353 178.82 264.353 178.747V171.443C264.353 171.37 264.375 171.311 264.419 171.267C264.471 171.216 264.533 171.19 264.606 171.19H265.156C265.23 171.19 265.288 171.216 265.332 171.267C265.384 171.311 265.409 171.37 265.409 171.443V174.006C265.622 173.735 265.871 173.529 266.157 173.39C266.443 173.243 266.799 173.17 267.224 173.17C267.928 173.17 268.475 173.397 268.863 173.852C269.259 174.299 269.457 174.897 269.457 175.645V178.747C269.457 178.82 269.432 178.883 269.38 178.934C269.336 178.978 269.278 179 269.204 179H268.654C268.581 179 268.519 178.978 268.467 178.934C268.423 178.883 268.401 178.82 268.401 178.747V175.7C268.401 175.179 268.273 174.776 268.016 174.49C267.767 174.204 267.404 174.061 266.927 174.061C266.465 174.061 266.095 174.208 265.816 174.501C265.545 174.787 265.409 175.187 265.409 175.7V178.747C265.409 178.82 265.384 178.883 265.332 178.934C265.288 178.978 265.23 179 265.156 179H264.606Z" fill="black"/>
<path opacity="0.5" d="M5.487 179.11C4.541 179.11 3.848 178.835 3.408 178.285C2.968 177.735 2.73333 177.013 2.704 176.118C2.69667 175.92 2.693 175.601 2.693 175.161C2.693 174.706 2.69667 174.376 2.704 174.171C2.726 173.291 2.96067 172.576 3.408 172.026C3.85533 171.469 4.54833 171.19 5.487 171.19C6.433 171.19 7.12967 171.469 7.577 172.026C8.02433 172.576 8.259 173.291 8.281 174.171C8.29567 174.582 8.303 174.912 8.303 175.161C8.303 175.403 8.29567 175.722 8.281 176.118C8.25167 177.013 8.017 177.735 7.577 178.285C7.137 178.835 6.44033 179.11 5.487 179.11ZM5.487 178.164C6.037 178.164 6.45133 177.981 6.73 177.614C7.016 177.247 7.16633 176.73 7.181 176.063C7.19567 175.638 7.203 175.33 7.203 175.139C7.203 174.934 7.19567 174.633 7.181 174.237C7.16633 173.577 7.01967 173.06 6.741 172.686C6.46233 172.312 6.04433 172.125 5.487 172.125C4.937 172.125 4.519 172.312 4.233 172.686C3.95433 173.06 3.80767 173.577 3.793 174.237L3.782 175.139L3.793 176.063C3.80767 176.73 3.95433 177.247 4.233 177.614C4.519 177.981 4.937 178.164 5.487 178.164ZM10.0604 179C9.98709 179 9.92476 178.978 9.87342 178.934C9.82942 178.883 9.80742 178.82 9.80742 178.747V171.443C9.80742 171.37 9.82942 171.311 9.87342 171.267C9.92476 171.216 9.98709 171.19 10.0604 171.19H10.6104C10.6838 171.19 10.7424 171.216 10.7864 171.267C10.8378 171.311 10.8634 171.37 10.8634 171.443V174.006C11.0761 173.735 11.3254 173.529 11.6114 173.39C11.8974 173.243 12.2531 173.17 12.6784 173.17C13.3824 173.17 13.9288 173.397 14.3174 173.852C14.7134 174.299 14.9114 174.897 14.9114 175.645V178.747C14.9114 178.82 14.8858 178.883 14.8344 178.934C14.7904 178.978 14.7318 179 14.6584 179H14.1084C14.0351 179 13.9728 178.978 13.9214 178.934C13.8774 178.883 13.8554 178.82 13.8554 178.747V175.7C13.8554 175.179 13.7271 174.776 13.4704 174.49C13.2211 174.204 12.8581 174.061 12.3814 174.061C11.9194 174.061 11.5491 174.208 11.2704 174.501C10.9991 174.787 10.8634 175.187 10.8634 175.7V178.747C10.8634 178.82 10.8378 178.883 10.7864 178.934C10.7424 178.978 10.6838 179 10.6104 179H10.0604Z" fill="black"/>
<path d="M152.252 96.14C151.421 96.14 150.707 96.014 150.11 95.762C149.512 95.51 149.06 95.1787 148.752 94.768C148.444 94.3573 148.28 93.914 148.262 93.438C148.262 93.354 148.29 93.284 148.346 93.228C148.402 93.172 148.472 93.144 148.556 93.144H149.802C149.914 93.144 149.998 93.1673 150.054 93.214C150.119 93.2513 150.18 93.3167 150.236 93.41C150.329 93.7273 150.544 93.9933 150.88 94.208C151.216 94.4227 151.673 94.53 152.252 94.53C152.914 94.53 153.414 94.4227 153.75 94.208C154.086 93.984 154.254 93.676 154.254 93.284C154.254 93.0227 154.165 92.808 153.988 92.64C153.82 92.472 153.563 92.3273 153.218 92.206C152.882 92.0847 152.378 91.9353 151.706 91.758C150.604 91.4967 149.797 91.1513 149.284 90.722C148.78 90.2833 148.528 89.6627 148.528 88.86C148.528 88.3187 148.672 87.838 148.962 87.418C149.26 86.998 149.685 86.6667 150.236 86.424C150.796 86.1813 151.444 86.06 152.182 86.06C152.947 86.06 153.61 86.1953 154.17 86.466C154.73 86.7367 155.154 87.0773 155.444 87.488C155.742 87.8893 155.901 88.2907 155.92 88.692C155.92 88.776 155.892 88.846 155.836 88.902C155.78 88.958 155.71 88.986 155.626 88.986H154.324C154.128 88.986 153.992 88.8973 153.918 88.72C153.862 88.4213 153.675 88.174 153.358 87.978C153.04 87.7727 152.648 87.67 152.182 87.67C151.659 87.67 151.248 87.768 150.95 87.964C150.651 88.16 150.502 88.4447 150.502 88.818C150.502 89.0793 150.576 89.294 150.726 89.462C150.875 89.63 151.108 89.7793 151.426 89.91C151.752 90.0407 152.219 90.1853 152.826 90.344C153.647 90.5307 154.3 90.7407 154.786 90.974C155.28 91.2073 155.644 91.5013 155.878 91.856C156.111 92.2107 156.228 92.6633 156.228 93.214C156.228 93.8113 156.06 94.334 155.724 94.782C155.397 95.2207 154.93 95.5567 154.324 95.79C153.726 96.0233 153.036 96.14 152.252 96.14ZM160.954 96C160.105 96 159.466 95.7807 159.036 95.342C158.616 94.894 158.406 94.2407 158.406 93.382V90.204H157.3C157.207 90.204 157.128 90.1713 157.062 90.106C156.997 90.0313 156.964 89.9473 156.964 89.854V89.056C156.964 88.9627 156.997 88.8833 157.062 88.818C157.128 88.7527 157.207 88.72 157.3 88.72H158.406V86.396C158.406 86.2933 158.439 86.214 158.504 86.158C158.57 86.0927 158.649 86.06 158.742 86.06H159.876C159.979 86.06 160.058 86.0927 160.114 86.158C160.18 86.214 160.212 86.2933 160.212 86.396V88.72H161.962C162.065 88.72 162.144 88.7527 162.2 88.818C162.266 88.874 162.298 88.9533 162.298 89.056V89.854C162.298 89.9567 162.266 90.0407 162.2 90.106C162.135 90.1713 162.056 90.204 161.962 90.204H160.212V93.242C160.212 93.6433 160.282 93.9467 160.422 94.152C160.562 94.3573 160.796 94.46 161.122 94.46H162.088C162.182 94.46 162.261 94.4927 162.326 94.558C162.392 94.6233 162.424 94.7027 162.424 94.796V95.664C162.424 95.7573 162.392 95.8367 162.326 95.902C162.27 95.9673 162.191 96 162.088 96H160.954ZM165.78 96.14C165.304 96.14 164.866 96.0467 164.464 95.86C164.072 95.664 163.76 95.4027 163.526 95.076C163.302 94.7493 163.19 94.39 163.19 93.998C163.19 93.3633 163.447 92.85 163.96 92.458C164.474 92.066 165.178 91.8 166.074 91.66L167.992 91.38V91.086C167.992 90.6753 167.89 90.3673 167.684 90.162C167.479 89.9567 167.148 89.854 166.69 89.854C166.382 89.854 166.13 89.9147 165.934 90.036C165.748 90.148 165.598 90.26 165.486 90.372C165.374 90.4933 165.3 90.5727 165.262 90.61C165.225 90.722 165.155 90.778 165.052 90.778H163.974C163.89 90.778 163.816 90.75 163.75 90.694C163.694 90.638 163.666 90.5633 163.666 90.47C163.676 90.2367 163.788 89.9707 164.002 89.672C164.226 89.3733 164.567 89.1167 165.024 88.902C165.482 88.6873 166.042 88.58 166.704 88.58C167.806 88.58 168.608 88.8273 169.112 89.322C169.616 89.8167 169.868 90.4653 169.868 91.268V95.664C169.868 95.7573 169.836 95.8367 169.77 95.902C169.714 95.9673 169.635 96 169.532 96H168.398C168.305 96 168.226 95.9673 168.16 95.902C168.095 95.8367 168.062 95.7573 168.062 95.664V95.118C167.857 95.4167 167.563 95.664 167.18 95.86C166.807 96.0467 166.34 96.14 165.78 96.14ZM166.256 94.81C166.77 94.81 167.19 94.642 167.516 94.306C167.843 93.97 168.006 93.48 168.006 92.836V92.542L166.606 92.766C166.065 92.85 165.654 92.9853 165.374 93.172C165.104 93.3587 164.968 93.5873 164.968 93.858C164.968 94.1567 165.094 94.39 165.346 94.558C165.598 94.726 165.902 94.81 166.256 94.81ZM172 96C171.907 96 171.828 95.9673 171.762 95.902C171.697 95.8367 171.664 95.7573 171.664 95.664V89.056C171.664 88.9627 171.697 88.8833 171.762 88.818C171.828 88.7527 171.907 88.72 172 88.72H173.148C173.242 88.72 173.321 88.7527 173.386 88.818C173.452 88.8833 173.484 88.9627 173.484 89.056V89.63C174.035 88.93 174.814 88.58 175.822 88.58C176.681 88.58 177.362 88.8647 177.866 89.434C178.37 89.994 178.622 90.7593 178.622 91.73V95.664C178.622 95.7573 178.59 95.8367 178.524 95.902C178.468 95.9673 178.389 96 178.286 96H177.054C176.961 96 176.882 95.9673 176.816 95.902C176.751 95.8367 176.718 95.7573 176.718 95.664V91.814C176.718 91.2633 176.583 90.8387 176.312 90.54C176.051 90.232 175.668 90.078 175.164 90.078C174.67 90.078 174.278 90.232 173.988 90.54C173.708 90.848 173.568 91.2727 173.568 91.814V95.664C173.568 95.7573 173.536 95.8367 173.47 95.902C173.414 95.9673 173.335 96 173.232 96H172ZM183.103 96.14C182.16 96.14 181.437 95.8367 180.933 95.23C180.429 94.6233 180.158 93.816 180.121 92.808L180.107 92.346L180.121 91.898C180.149 90.918 180.415 90.12 180.919 89.504C181.432 88.888 182.16 88.58 183.103 88.58C184.008 88.58 184.727 88.888 185.259 89.504V86.396C185.259 86.2933 185.291 86.214 185.357 86.158C185.422 86.0927 185.501 86.06 185.595 86.06H186.785C186.887 86.06 186.967 86.0927 187.023 86.158C187.088 86.214 187.121 86.2933 187.121 86.396V95.664C187.121 95.7573 187.088 95.8367 187.023 95.902C186.967 95.9673 186.887 96 186.785 96H185.679C185.585 96 185.506 95.9673 185.441 95.902C185.375 95.8367 185.343 95.7573 185.343 95.664V95.146C184.811 95.8087 184.064 96.14 183.103 96.14ZM183.621 94.642C184.162 94.642 184.563 94.4693 184.825 94.124C185.086 93.7787 185.231 93.354 185.259 92.85C185.268 92.738 185.273 92.556 185.273 92.304C185.273 92.0613 185.268 91.884 185.259 91.772C185.24 91.3053 185.091 90.9087 184.811 90.582C184.54 90.246 184.143 90.078 183.621 90.078C182.613 90.078 182.076 90.6987 182.011 91.94L181.997 92.36L182.011 92.78C182.076 94.0213 182.613 94.642 183.621 94.642ZM191.101 96.14C190.625 96.14 190.186 96.0467 189.785 95.86C189.393 95.664 189.08 95.4027 188.847 95.076C188.623 94.7493 188.511 94.39 188.511 93.998C188.511 93.3633 188.767 92.85 189.281 92.458C189.794 92.066 190.499 91.8 191.395 91.66L193.313 91.38V91.086C193.313 90.6753 193.21 90.3673 193.005 90.162C192.799 89.9567 192.468 89.854 192.011 89.854C191.703 89.854 191.451 89.9147 191.255 90.036C191.068 90.148 190.919 90.26 190.807 90.372C190.695 90.4933 190.62 90.5727 190.583 90.61C190.545 90.722 190.475 90.778 190.373 90.778H189.295C189.211 90.778 189.136 90.75 189.071 90.694C189.015 90.638 188.986 90.5633 188.986 90.47C188.996 90.2367 189.108 89.9707 189.323 89.672C189.547 89.3733 189.887 89.1167 190.345 88.902C190.802 88.6873 191.362 88.58 192.025 88.58C193.126 88.58 193.929 88.8273 194.433 89.322C194.937 89.8167 195.189 90.4653 195.189 91.268V95.664C195.189 95.7573 195.156 95.8367 195.091 95.902C195.035 95.9673 194.955 96 194.853 96H193.719C193.625 96 193.546 95.9673 193.481 95.902C193.415 95.8367 193.383 95.7573 193.383 95.664V95.118C193.177 95.4167 192.883 95.664 192.501 95.86C192.127 96.0467 191.661 96.14 191.101 96.14ZM191.577 94.81C192.09 94.81 192.51 94.642 192.837 94.306C193.163 93.97 193.327 93.48 193.327 92.836V92.542L191.927 92.766C191.385 92.85 190.975 92.9853 190.695 93.172C190.424 93.3587 190.289 93.5873 190.289 93.858C190.289 94.1567 190.415 94.39 190.667 94.558C190.919 94.726 191.222 94.81 191.577 94.81ZM197.321 96C197.227 96 197.148 95.9673 197.083 95.902C197.017 95.8367 196.985 95.7573 196.985 95.664V89.07C196.985 88.9767 197.017 88.8973 197.083 88.832C197.148 88.7573 197.227 88.72 197.321 88.72H198.455C198.557 88.72 198.641 88.7527 198.707 88.818C198.772 88.8833 198.805 88.9673 198.805 89.07V89.644C199.029 89.3453 199.309 89.1167 199.645 88.958C199.99 88.7993 200.382 88.72 200.821 88.72H201.395C201.497 88.72 201.577 88.7527 201.633 88.818C201.698 88.874 201.731 88.9533 201.731 89.056V90.064C201.731 90.1573 201.698 90.2367 201.633 90.302C201.577 90.3673 201.497 90.4 201.395 90.4H200.303C199.864 90.4 199.519 90.526 199.267 90.778C199.015 91.03 198.889 91.3753 198.889 91.814V95.664C198.889 95.7573 198.856 95.8367 198.791 95.902C198.725 95.9673 198.641 96 198.539 96H197.321ZM205.415 96.14C204.472 96.14 203.749 95.8367 203.245 95.23C202.741 94.6233 202.47 93.816 202.433 92.808L202.419 92.346L202.433 91.898C202.461 90.918 202.727 90.12 203.231 89.504C203.744 88.888 204.472 88.58 205.415 88.58C206.32 88.58 207.039 88.888 207.571 89.504V86.396C207.571 86.2933 207.604 86.214 207.669 86.158C207.734 86.0927 207.814 86.06 207.907 86.06H209.097C209.2 86.06 209.279 86.0927 209.335 86.158C209.4 86.214 209.433 86.2933 209.433 86.396V95.664C209.433 95.7573 209.4 95.8367 209.335 95.902C209.279 95.9673 209.2 96 209.097 96H207.991C207.898 96 207.818 95.9673 207.753 95.902C207.688 95.8367 207.655 95.7573 207.655 95.664V95.146C207.123 95.8087 206.376 96.14 205.415 96.14ZM205.933 94.642C206.474 94.642 206.876 94.4693 207.137 94.124C207.398 93.7787 207.543 93.354 207.571 92.85C207.58 92.738 207.585 92.556 207.585 92.304C207.585 92.0613 207.58 91.884 207.571 91.772C207.552 91.3053 207.403 90.9087 207.123 90.582C206.852 90.246 206.456 90.078 205.933 90.078C204.925 90.078 204.388 90.6987 204.323 91.94L204.309 92.36L204.323 92.78C204.388 94.0213 204.925 94.642 205.933 94.642ZM216.172 96C216.05 96 215.952 95.972 215.878 95.916C215.812 95.8507 215.756 95.762 215.71 95.65L213.708 89.154C213.698 89.126 213.694 89.084 213.694 89.028C213.694 88.944 213.722 88.874 213.778 88.818C213.843 88.7527 213.913 88.72 213.988 88.72H215.024C215.126 88.72 215.21 88.748 215.276 88.804C215.341 88.86 215.383 88.9207 215.402 88.986L216.774 93.62L218.23 89.028C218.258 88.944 218.304 88.874 218.37 88.818C218.444 88.7527 218.538 88.72 218.65 88.72H219.35C219.462 88.72 219.55 88.7527 219.616 88.818C219.69 88.874 219.742 88.944 219.77 89.028L221.226 93.62L222.598 88.986C222.607 88.9207 222.644 88.86 222.71 88.804C222.784 88.748 222.868 88.72 222.962 88.72H223.998C224.082 88.72 224.152 88.7527 224.208 88.818C224.273 88.874 224.306 88.944 224.306 89.028L224.278 89.154L222.276 95.65C222.238 95.762 222.182 95.8507 222.108 95.916C222.042 95.972 221.949 96 221.828 96H220.918C220.675 96 220.521 95.8833 220.456 95.65L219 91.226L217.544 95.65C217.469 95.8833 217.31 96 217.068 96H216.172ZM228.683 96.14C227.591 96.14 226.746 95.86 226.149 95.3C225.552 94.7307 225.23 93.956 225.183 92.976L225.169 92.36L225.183 91.744C225.23 90.7733 225.556 90.0033 226.163 89.434C226.77 88.8647 227.61 88.58 228.683 88.58C229.756 88.58 230.596 88.8647 231.203 89.434C231.81 90.0033 232.136 90.7733 232.183 91.744C232.192 91.856 232.197 92.0613 232.197 92.36C232.197 92.6587 232.192 92.864 232.183 92.976C232.136 93.956 231.814 94.7307 231.217 95.3C230.62 95.86 229.775 96.14 228.683 96.14ZM228.683 94.754C229.178 94.754 229.56 94.6 229.831 94.292C230.102 93.9747 230.251 93.5127 230.279 92.906C230.288 92.8127 230.293 92.6307 230.293 92.36C230.293 92.0893 230.288 91.9073 230.279 91.814C230.251 91.2073 230.102 90.75 229.831 90.442C229.56 90.1247 229.178 89.966 228.683 89.966C228.188 89.966 227.806 90.1247 227.535 90.442C227.264 90.75 227.115 91.2073 227.087 91.814L227.073 92.36L227.087 92.906C227.115 93.5127 227.264 93.9747 227.535 94.292C227.806 94.6 228.188 94.754 228.683 94.754ZM234.084 96C233.991 96 233.912 95.9673 233.846 95.902C233.781 95.8367 233.748 95.7573 233.748 95.664V89.07C233.748 88.9767 233.781 88.8973 233.846 88.832C233.912 88.7573 233.991 88.72 234.084 88.72H235.218C235.321 88.72 235.405 88.7527 235.47 88.818C235.536 88.8833 235.568 88.9673 235.568 89.07V89.644C235.792 89.3453 236.072 89.1167 236.408 88.958C236.754 88.7993 237.146 88.72 237.584 88.72H238.158C238.261 88.72 238.34 88.7527 238.396 88.818C238.462 88.874 238.494 88.9533 238.494 89.056V90.064C238.494 90.1573 238.462 90.2367 238.396 90.302C238.34 90.3673 238.261 90.4 238.158 90.4H237.066C236.628 90.4 236.282 90.526 236.03 90.778C235.778 91.03 235.652 91.3753 235.652 91.814V95.664C235.652 95.7573 235.62 95.8367 235.554 95.902C235.489 95.9673 235.405 96 235.302 96H234.084ZM239.936 96C239.843 96 239.763 95.9673 239.698 95.902C239.633 95.8367 239.6 95.7573 239.6 95.664V86.396C239.6 86.2933 239.633 86.214 239.698 86.158C239.763 86.0927 239.843 86.06 239.936 86.06H241.07C241.173 86.06 241.252 86.0927 241.308 86.158C241.373 86.214 241.406 86.2933 241.406 86.396V91.184L243.758 88.958C243.786 88.9393 243.833 88.902 243.898 88.846C243.954 88.7993 244.01 88.7667 244.066 88.748C244.122 88.7293 244.192 88.72 244.276 88.72H245.578C245.671 88.72 245.746 88.748 245.802 88.804C245.858 88.86 245.886 88.9347 245.886 89.028C245.886 89.112 245.839 89.196 245.746 89.28L242.862 91.982L246.096 95.454C246.189 95.5473 246.236 95.6267 246.236 95.692C246.236 95.7853 246.203 95.86 246.138 95.916C246.082 95.972 246.012 96 245.928 96H244.598C244.467 96 244.369 95.986 244.304 95.958C244.248 95.9207 244.173 95.8553 244.08 95.762L241.406 92.948V95.664C241.406 95.7573 241.373 95.8367 241.308 95.902C241.252 95.9673 241.173 96 241.07 96H239.936ZM250.162 96.14C249.07 96.14 248.225 95.86 247.628 95.3C247.03 94.7307 246.708 93.956 246.662 92.976L246.648 92.36L246.662 91.744C246.708 90.7733 247.035 90.0033 247.642 89.434C248.248 88.8647 249.088 88.58 250.162 88.58C251.235 88.58 252.075 88.8647 252.682 89.434C253.288 90.0033 253.615 90.7733 253.662 91.744C253.671 91.856 253.676 92.0613 253.676 92.36C253.676 92.6587 253.671 92.864 253.662 92.976C253.615 93.956 253.293 94.7307 252.696 95.3C252.098 95.86 251.254 96.14 250.162 96.14ZM250.162 94.754C250.656 94.754 251.039 94.6 251.31 94.292C251.58 93.9747 251.73 93.5127 251.758 92.906C251.767 92.8127 251.772 92.6307 251.772 92.36C251.772 92.0893 251.767 91.9073 251.758 91.814C251.73 91.2073 251.58 90.75 251.31 90.442C251.039 90.1247 250.656 89.966 250.162 89.966C249.667 89.966 249.284 90.1247 249.014 90.442C248.743 90.75 248.594 91.2073 248.566 91.814L248.552 92.36L248.566 92.906C248.594 93.5127 248.743 93.9747 249.014 94.292C249.284 94.6 249.667 94.754 250.162 94.754ZM257.929 96.14C257.07 96.14 256.393 95.86 255.899 95.3C255.404 94.7307 255.157 93.9607 255.157 92.99V89.056C255.157 88.9627 255.189 88.8833 255.255 88.818C255.32 88.7527 255.399 88.72 255.493 88.72H256.725C256.827 88.72 256.907 88.7527 256.963 88.818C257.028 88.874 257.061 88.9533 257.061 89.056V92.906C257.061 94.0633 257.569 94.642 258.587 94.642C259.072 94.642 259.455 94.488 259.735 94.18C260.024 93.872 260.169 93.4473 260.169 92.906V89.056C260.169 88.9627 260.201 88.8833 260.267 88.818C260.332 88.7527 260.411 88.72 260.505 88.72H261.737C261.839 88.72 261.919 88.7527 261.975 88.818C262.04 88.874 262.073 88.9533 262.073 89.056V95.664C262.073 95.7573 262.04 95.8367 261.975 95.902C261.919 95.9673 261.839 96 261.737 96H260.603C260.509 96 260.43 95.9673 260.365 95.902C260.299 95.8367 260.267 95.7573 260.267 95.664V95.09C259.744 95.79 258.965 96.14 257.929 96.14ZM267.212 96C266.363 96 265.723 95.7807 265.294 95.342C264.874 94.894 264.664 94.2407 264.664 93.382V90.204H263.558C263.465 90.204 263.385 90.1713 263.32 90.106C263.255 90.0313 263.222 89.9473 263.222 89.854V89.056C263.222 88.9627 263.255 88.8833 263.32 88.818C263.385 88.7527 263.465 88.72 263.558 88.72H264.664V86.396C264.664 86.2933 264.697 86.214 264.762 86.158C264.827 86.0927 264.907 86.06 265 86.06H266.134C266.237 86.06 266.316 86.0927 266.372 86.158C266.437 86.214 266.47 86.2933 266.47 86.396V88.72H268.22C268.323 88.72 268.402 88.7527 268.458 88.818C268.523 88.874 268.556 88.9533 268.556 89.056V89.854C268.556 89.9567 268.523 90.0407 268.458 90.106C268.393 90.1713 268.313 90.204 268.22 90.204H266.47V93.242C266.47 93.6433 266.54 93.9467 266.68 94.152C266.82 94.3573 267.053 94.46 267.38 94.46H268.346C268.439 94.46 268.519 94.4927 268.584 94.558C268.649 94.6233 268.682 94.7027 268.682 94.796V95.664C268.682 95.7573 268.649 95.8367 268.584 95.902C268.528 95.9673 268.449 96 268.346 96H267.212Z" fill="black"/>
<rect opacity="0.8" x="3" width="1" height="160" fill="black"/>
<path opacity="0.8" d="M3 161L3 160L283 160L283 161L3 161Z" fill="black"/>
<rect opacity="0.05" x="41" width="1" height="160" fill="black"/>
<rect opacity="0.8" x="79" width="1" height="160" fill="black"/>
<rect opacity="0.05" x="117" width="1" height="160" fill="black"/>
<rect opacity="0.05" x="155" width="1" height="160" fill="black"/>
<rect opacity="0.05" x="193" width="1" height="160" fill="black"/>
<rect opacity="0.05" x="231" width="1" height="160" fill="black"/>
<rect opacity="0.05" x="269" width="1" height="160" fill="black"/>
<path fill-rule="evenodd" clip-rule="evenodd" d="M58.2041 82.333C47.5316 82.333 37.3852 86.9677 30.3976 95.0345L26.7005 99.3026C21.2758 105.565 14.4621 110.473 6.80341 113.633L4.2633 114.682L2.7373 110.984L5.27742 109.936C12.3597 107.013 18.6606 102.475 23.6771 96.6836L27.3741 92.4156C35.1216 83.4716 46.3712 78.333 58.2041 78.333C68.3225 78.333 78.0798 82.094 85.5805 88.8853L86.9134 90.0922C94.5364 96.9942 104.453 100.817 114.736 100.817H269.5V104.817H114.736C103.46 104.817 92.5872 100.625 84.2287 93.0573L82.8957 91.8505C76.1306 85.7251 67.3302 82.333 58.2041 82.333Z" fill="url(#paint1_linear)"/>
<path fill-rule="evenodd" clip-rule="evenodd" d="M57.962 24.9876C54.9222 24.9876 52.2437 26.9829 51.3771 29.8931L46.9487 44.763C46.0673 47.7227 43.3432 49.7519 40.2517 49.7519C38.927 49.7519 37.7598 50.6212 37.3818 51.8892L28.6494 81.18C27.6371 84.5753 24.4873 86.8837 20.9408 86.8294C19.3544 86.8052 17.9095 87.7374 17.2794 89.1917L5.66415 116L2 114.416L13.6153 87.608C14.8865 84.674 17.8015 82.7933 21.002 82.8423C22.7599 82.8692 24.3212 81.7249 24.8229 80.042L33.5553 50.7512C34.4373 47.7925 37.1609 45.7643 40.2517 45.7643C41.5766 45.7643 42.7441 44.8946 43.1218 43.6262L47.5503 28.7562C48.9206 24.1549 53.1556 21 57.962 21C62.1295 21 65.9296 23.3814 67.7427 27.1292L69.7957 31.373C71.4547 34.8021 74.4084 37.4335 78.0082 38.6893L93.1537 43.9728C96.9568 45.2995 100.609 47.0241 104.049 49.1178L105.49 49.9949C116.319 56.5857 128.755 60.0722 141.437 60.0722H269.5V64.0598H141.437C128.023 64.0598 114.867 60.3719 103.412 53.4001L101.971 52.5231C98.7716 50.5756 95.3747 48.9714 91.8372 47.7374L76.6917 42.4539C72.0932 40.8497 68.3201 37.4883 66.2009 33.1078L64.1478 28.8641C63.0011 26.4937 60.5978 24.9876 57.962 24.9876Z" fill="url(#paint2_linear)"/>
<circle cx="4" cy="114" r="4" fill="#FF030E"/>
<path d="M137.655 55C137.549 55 137.462 54.9667 137.395 54.9C137.329 54.8333 137.295 54.7467 137.295 54.64C137.295 54.5733 137.315 54.5 137.355 54.42L144.515 41.66C144.622 41.4867 144.762 41.3333 144.935 41.2C145.109 41.0667 145.315 41 145.555 41H149.995C150.235 41 150.415 41.0667 150.535 41.2C150.655 41.32 150.729 41.4733 150.755 41.66L152.515 54.42C152.529 54.5933 152.482 54.7333 152.375 54.84C152.269 54.9467 152.135 55 151.975 55H148.375C147.949 55 147.722 54.8333 147.695 54.5L147.495 53.18H143.195L142.435 54.5C142.342 54.6467 142.229 54.7667 142.095 54.86C141.962 54.9533 141.782 55 141.555 55H137.655ZM147.295 49.28L146.955 45.56L145.035 49.28H147.295ZM154.65 55C154.504 55 154.384 54.9467 154.29 54.84C154.21 54.7333 154.184 54.6067 154.21 54.46L156.97 41.54C156.997 41.3933 157.07 41.2667 157.19 41.16C157.324 41.0533 157.464 41 157.61 41H167.69C167.837 41 167.957 41.0533 168.05 41.16C168.117 41.24 168.15 41.3333 168.15 41.44C168.15 41.4667 168.144 41.5 168.13 41.54L167.47 44.58C167.444 44.7267 167.364 44.8533 167.23 44.96C167.11 45.0667 166.977 45.12 166.83 45.12H161.11L160.79 46.6H166.11C166.257 46.6 166.37 46.6533 166.45 46.76C166.517 46.84 166.55 46.9333 166.55 47.04C166.55 47.0667 166.544 47.1 166.53 47.14L165.89 50.16C165.864 50.3067 165.784 50.4333 165.65 50.54C165.517 50.6467 165.377 50.7 165.23 50.7H159.91L159.11 54.46C159.084 54.6067 159.004 54.7333 158.87 54.84C158.75 54.9467 158.617 55 158.47 55H154.65ZM171.28 55C171.133 55 171.013 54.9467 170.92 54.84C170.84 54.7333 170.813 54.6067 170.84 54.46L172.8 45.3H169.48C169.333 45.3 169.213 45.2467 169.12 45.14C169.04 45.0333 169.013 44.9067 169.04 44.76L169.74 41.54C169.767 41.3933 169.84 41.2667 169.96 41.16C170.093 41.0533 170.233 41 170.38 41H182.1C182.247 41 182.367 41.0533 182.46 41.16C182.527 41.24 182.56 41.3333 182.56 41.44C182.56 41.4667 182.553 41.5 182.54 41.54L181.84 44.76C181.813 44.9067 181.733 45.0333 181.6 45.14C181.48 45.2467 181.347 45.3 181.2 45.3H177.88L175.92 54.46C175.893 54.6067 175.813 54.7333 175.68 54.84C175.56 54.9467 175.427 55 175.28 55H171.28ZM182.237 55C182.09 55 181.97 54.9467 181.877 54.84C181.797 54.7333 181.77 54.6067 181.797 54.46L184.557 41.54C184.584 41.3933 184.657 41.2667 184.777 41.16C184.91 41.0533 185.05 41 185.197 41H195.457C195.604 41 195.724 41.0533 195.817 41.16C195.884 41.24 195.917 41.3333 195.917 41.44C195.917 41.4667 195.91 41.5 195.897 41.54L195.297 44.36C195.257 44.5067 195.17 44.6333 195.037 44.74C194.917 44.8467 194.784 44.9 194.637 44.9H188.637L188.357 46.16H193.917C194.064 46.16 194.184 46.2133 194.277 46.32C194.344 46.4 194.377 46.4933 194.377 46.6C194.377 46.6267 194.37 46.66 194.357 46.7L193.797 49.3C193.77 49.4467 193.69 49.5733 193.557 49.68C193.424 49.7867 193.284 49.84 193.137 49.84H187.577L187.317 51.1H193.477C193.624 51.1 193.737 51.1533 193.817 51.26C193.884 51.34 193.917 51.4333 193.917 51.54C193.917 51.5667 193.91 51.6 193.897 51.64L193.297 54.46C193.27 54.6067 193.19 54.7333 193.057 54.84C192.937 54.9467 192.804 55 192.657 55H182.237ZM196.437 55C196.291 55 196.177 54.9467 196.097 54.84C196.017 54.7333 195.991 54.6067 196.017 54.46L198.757 41.54C198.784 41.3933 198.864 41.2667 198.997 41.16C199.131 41.0533 199.271 41 199.417 41H205.337C207.004 41 208.284 41.3333 209.177 42C210.084 42.6533 210.537 43.5733 210.537 44.76C210.537 45.1067 210.497 45.4733 210.417 45.86C210.231 46.7267 209.871 47.4933 209.337 48.16C208.817 48.8133 208.184 49.3533 207.437 49.78L208.917 54.34C208.944 54.4333 208.951 54.5067 208.937 54.56C208.911 54.68 208.844 54.7867 208.737 54.88C208.631 54.96 208.517 55 208.397 55H204.297C204.057 55 203.877 54.9467 203.757 54.84C203.651 54.72 203.584 54.5933 203.557 54.46L202.657 50.64H201.837L201.017 54.46C200.991 54.6067 200.911 54.7333 200.777 54.84C200.644 54.9467 200.504 55 200.357 55H196.437ZM204.097 46.84C204.444 46.84 204.724 46.7067 204.937 46.44C205.151 46.1733 205.257 45.8667 205.257 45.52C205.257 45.28 205.197 45.0867 205.077 44.94C204.971 44.7933 204.791 44.72 204.537 44.72H203.077L202.637 46.84H204.097ZM211.191 55C211.044 55 210.924 54.9467 210.831 54.84C210.751 54.7333 210.724 54.6067 210.751 54.46L213.511 41.54C213.538 41.3933 213.611 41.2667 213.731 41.16C213.864 41.0533 214.004 41 214.151 41H220.391C222.018 41 223.284 41.28 224.191 41.84C225.098 42.4 225.551 43.22 225.551 44.3C225.551 44.54 225.518 44.84 225.451 45.2C225.331 45.7733 225.051 46.2867 224.611 46.74C224.184 47.18 223.751 47.5 223.311 47.7C223.711 47.8867 224.031 48.1867 224.271 48.6C224.524 49 224.651 49.4533 224.651 49.96C224.651 50.16 224.631 50.3733 224.591 50.6C224.271 52.1067 223.611 53.22 222.611 53.94C221.624 54.6467 220.231 55 218.431 55H211.191ZM219.171 46.26C219.438 46.26 219.658 46.1733 219.831 46C220.018 45.8133 220.138 45.6 220.191 45.36C220.204 45.3067 220.211 45.2267 220.211 45.12C220.211 44.9333 220.158 44.7733 220.051 44.64C219.958 44.5067 219.798 44.44 219.571 44.44H217.891L217.491 46.26H219.171ZM218.231 51.56C218.538 51.56 218.791 51.46 218.991 51.26C219.191 51.06 219.311 50.8333 219.351 50.58C219.378 50.4733 219.391 50.3867 219.391 50.32C219.391 50.12 219.324 49.9533 219.191 49.82C219.071 49.6733 218.891 49.6 218.651 49.6H216.791L216.371 51.56H218.231ZM232.619 55.2C231.552 55.2 230.572 55.0467 229.679 54.74C228.799 54.42 228.092 53.94 227.559 53.3C227.026 52.6467 226.759 51.8467 226.759 50.9C226.759 50.5 226.806 50.1067 226.899 49.72L228.639 41.54C228.666 41.3933 228.739 41.2667 228.859 41.16C228.992 41.0533 229.132 41 229.279 41H233.199C233.346 41 233.466 41.0533 233.559 41.16C233.626 41.24 233.659 41.3333 233.659 41.44C233.659 41.4667 233.652 41.5 233.639 41.54L231.899 49.64C231.859 49.8133 231.839 49.9733 231.839 50.12C231.839 50.8267 232.246 51.18 233.059 51.18C233.552 51.18 233.946 51.0533 234.239 50.8C234.546 50.5333 234.752 50.1467 234.859 49.64L236.599 41.54C236.626 41.3933 236.699 41.2667 236.819 41.16C236.952 41.0533 237.092 41 237.239 41H241.159C241.306 41 241.426 41.0533 241.519 41.16C241.586 41.24 241.619 41.3333 241.619 41.44C241.619 41.4667 241.612 41.5 241.599 41.54L239.859 49.72C239.446 51.6133 238.659 53 237.499 53.88C236.339 54.76 234.712 55.2 232.619 55.2ZM242.241 55C242.095 55 241.981 54.9467 241.901 54.84C241.821 54.7333 241.795 54.6067 241.821 54.46L244.561 41.54C244.588 41.3933 244.668 41.2667 244.801 41.16C244.935 41.0533 245.075 41 245.221 41H251.141C252.808 41 254.088 41.3333 254.981 42C255.888 42.6533 256.341 43.5733 256.341 44.76C256.341 45.1067 256.301 45.4733 256.221 45.86C256.035 46.7267 255.675 47.4933 255.141 48.16C254.621 48.8133 253.988 49.3533 253.241 49.78L254.721 54.34C254.748 54.4333 254.755 54.5067 254.741 54.56C254.715 54.68 254.648 54.7867 254.541 54.88C254.435 54.96 254.321 55 254.201 55H250.101C249.861 55 249.681 54.9467 249.561 54.84C249.455 54.72 249.388 54.5933 249.361 54.46L248.461 50.64H247.641L246.821 54.46C246.795 54.6067 246.715 54.7333 246.581 54.84C246.448 54.9467 246.308 55 246.161 55H242.241ZM249.901 46.84C250.248 46.84 250.528 46.7067 250.741 46.44C250.955 46.1733 251.061 45.8667 251.061 45.52C251.061 45.28 251.001 45.0867 250.881 44.94C250.775 44.7933 250.595 44.72 250.341 44.72H248.881L248.441 46.84H249.901ZM256.995 55C256.848 55 256.728 54.9467 256.635 54.84C256.555 54.7333 256.528 54.6067 256.555 54.46L259.315 41.54C259.342 41.3933 259.415 41.2667 259.535 41.16C259.668 41.0533 259.808 41 259.955 41H263.115C263.502 41 263.742 41.1533 263.835 41.46L266.055 47L267.215 41.54C267.242 41.3933 267.315 41.2667 267.435 41.16C267.568 41.0533 267.708 41 267.855 41H271.475C271.622 41 271.742 41.0533 271.835 41.16C271.902 41.24 271.935 41.3333 271.935 41.44C271.935 41.4667 271.928 41.5 271.915 41.54L269.155 54.46C269.128 54.6067 269.048 54.7333 268.915 54.84C268.795 54.9467 268.662 55 268.515 55H265.355C265.128 55 264.962 54.9533 264.855 54.86C264.762 54.7667 264.682 54.66 264.615 54.54L262.335 49.44L261.255 54.46C261.228 54.6067 261.148 54.7333 261.015 54.84C260.895 54.9467 260.762 55 260.615 55H256.995Z" fill="url(#paint3_linear)"/>
<defs>
<linearGradient id="paint0_linear" x1="103.5" y1="108" x2="121" y2="80.5" gradientUnits="userSpaceOnUse">
<stop offset="0.50548" stop-color="white"/>
<stop offset="1" stop-color="white" stop-opacity="0"/>
</linearGradient>
<linearGradient id="paint1_linear" x1="270.001" y1="90.1145" x2="2.73727" y2="90.1145" gradientUnits="userSpaceOnUse">
<stop stop-color="#94E5FF" stop-opacity="0"/>
<stop offset="0.422357" stop-color="#94E5FF"/>
<stop offset="0.753534" stop-color="#FFA800"/>
</linearGradient>
<linearGradient id="paint2_linear" x1="269.834" y1="51.7918" x2="1.99997" y2="51.7918" gradientUnits="userSpaceOnUse">
<stop stop-color="#FFC700"/>
<stop offset="0.733744" stop-color="#FF2E00"/>
<stop offset="1" stop-color="#FF000F"/>
</linearGradient>
<linearGradient id="paint3_linear" x1="332.735" y1="54.7031" x2="83.4663" y2="27.2886" gradientUnits="userSpaceOnUse">
<stop offset="0.000992268" stop-color="#FFE000"/>
<stop offset="1" stop-color="#FF2E00"/>
</linearGradient>
</defs>
</svg>
