<svg width="102" height="40" viewBox="0 0 102 40" fill="none" xmlns="http://www.w3.org/2000/svg">
<path d="M49.4117 0C44.4303 0 40.3921 4.03822 40.3921 9.01961V13.7255H41.9607V9.01961C41.9607 4.90455 45.2966 1.56863 49.4117 1.56863V0Z" fill="#FF7205"/>
<path d="M49.4116 1.56863C53.5267 1.56863 56.8626 4.90455 56.8626 9.01961V25.4902H58.4312V9.01961C58.4312 4.03821 54.393 0 49.4116 0V1.56863Z" fill="#FF7205"/>
<path d="M49.4116 39.9999C54.393 39.9999 58.4312 35.9617 58.4312 30.9803V26.2744H56.8626V30.9803C56.8626 35.0954 53.5267 38.4313 49.4116 38.4313V39.9999Z" fill="#7B6EEC"/>
<path d="M49.4117 38.4313C45.2966 38.4313 41.9607 35.0954 41.9607 30.9804V14.5098H40.3921V30.9804C40.3921 35.9617 44.4303 40 49.4117 40V38.4313Z" fill="#7B6EEC"/>
<path d="M18.8235 14.9019C18.8235 14.6853 18.9991 14.5098 19.2157 14.5098H25.6863C27.7438 14.5098 29.4118 16.1777 29.4118 18.2353C29.4118 19.8233 28.4181 21.1793 27.0187 21.7154L29.03 24.888C29.1956 25.1491 29.008 25.4902 28.6988 25.4902H27.8623C27.7283 25.4902 27.6035 25.4217 27.5315 25.3085L24.902 21.1764V20.7843C24.902 20.5677 25.0775 20.3921 25.2941 20.3921H25.6863C26.8775 20.3921 27.8431 19.4265 27.8431 18.2353C27.8431 17.0441 26.8775 16.0784 25.6863 16.0784H20.3922V25.098C20.3922 25.3146 20.2166 25.4902 20 25.4902H19.2157C18.9991 25.4902 18.8235 25.3146 18.8235 25.098V14.9019Z" fill="black"/>
<path d="M11.6517 16.4201C11.5876 16.6282 11.3663 16.7436 11.1571 16.6836C9.16318 16.1119 6.97643 15.9494 4.51533 16.2185C2.41511 16.4481 1.56162 17.647 1.56162 20.1987C1.56162 22.7504 2.35524 23.96 4.40208 24.1799C6.76204 24.4334 8.97138 24.2835 10.9874 23.7528L10.9874 21.185H9.42752C9.21094 21.185 9.03537 21.0094 9.03537 20.7928V19.9949C9.03537 19.7783 9.21094 19.6027 9.42752 19.6027H12.1568C12.3734 19.6027 12.549 19.7783 12.549 19.9949L12.549 24.644C12.549 24.815 12.4382 24.9663 12.2752 25.0179L12.0011 25.1047C9.67494 25.8412 6.97664 26.0476 4.23745 25.7534C1.39763 25.4483 0 23.5347 0 20.1987C0 16.8627 1.45756 14.9614 4.3478 14.6454C6.98367 14.3572 9.39214 14.5259 11.6286 15.1745C11.8355 15.2345 11.9499 15.4535 11.8864 15.6594L11.6517 16.4201Z" fill="black"/>
<path d="M72.1569 14.9019C72.1569 14.6853 71.9813 14.5098 71.7647 14.5098H70.9804C70.7638 14.5098 70.5882 14.6853 70.5882 14.9019V25.098C70.5882 25.3146 70.7638 25.4902 70.9804 25.4902H71.7647C71.9813 25.4902 72.1569 25.3146 72.1569 25.098V14.9019Z" fill="black"/>
<path d="M77.6471 14.5098C77.4305 14.5098 77.2549 14.6853 77.2549 14.9019V15.6862C77.2549 15.9028 77.4305 16.0784 77.6471 16.0784H81.1765V25.098C81.1765 25.3146 81.352 25.4902 81.5686 25.4902H82.3529C82.5695 25.4902 82.7451 25.3146 82.7451 25.098V16.0784L86.2745 16.0784C86.4911 16.0784 86.6667 15.9028 86.6667 15.6862V14.9019C86.6667 14.6853 86.4911 14.5098 86.2745 14.5098H77.6471Z" fill="black"/>
<path d="M90.5474 14.5098C90.232 14.5098 90.0456 14.8631 90.2237 15.1234L94.9019 21.9607V25.098C94.9019 25.3146 95.0775 25.4902 95.2941 25.4902H96.0784C96.295 25.4902 96.4705 25.3146 96.4705 25.098V21.9607L101.149 15.1234C101.327 14.8631 101.14 14.5098 100.825 14.5098H99.8282C99.6974 14.5098 99.5752 14.575 99.5024 14.6837L95.6862 20.3826L91.8701 14.6837C91.7973 14.575 91.6751 14.5098 91.5442 14.5098H90.5474Z" fill="black"/>
<path d="M57.2606 23.9215H58.0336L63.5269 14.7097C63.5954 14.5862 63.7242 14.5098 63.8638 14.5098H64.711C65.0077 14.5098 65.1938 14.8351 65.0465 15.0965L58.9178 25.2926C58.849 25.4148 58.7209 25.4902 58.5822 25.4902H56.7119C56.5732 25.4902 56.4451 25.4148 56.3763 25.2926L50.2476 15.0965C50.1003 14.8351 50.2864 14.5098 50.5831 14.5098H51.4303C51.57 14.5098 51.6987 14.5862 51.7672 14.7097L57.2606 23.9215Z" fill="black"/>
<path d="M41.563 16.0784H40.79L35.2966 25.2903C35.2281 25.4137 35.0994 25.4902 34.9597 25.4902H34.1126C33.8158 25.4902 33.6297 25.1649 33.777 24.9034L39.9057 14.7074C39.9745 14.5852 40.1026 14.5098 40.2413 14.5098H42.1116C42.2503 14.5098 42.3784 14.5852 42.4472 14.7074L48.576 24.9034C48.7232 25.1649 48.5371 25.4902 48.2404 25.4902H47.3932C47.2536 25.4902 47.1248 25.4137 47.0563 25.2903L41.563 16.0784Z" fill="black"/>
</svg>
